<svg width="24" height="24" viewBox="0 0 24 24" fill="none" xmlns="http://www.w3.org/2000/svg">
<g clip-path="url(#clip0_6902_140683)">
<path d="M12 24C18.6274 24 24 18.6274 24 12C24 5.37258 18.6274 0 12 0C5.37258 0 0 5.37258 0 12C0 18.6274 5.37258 24 12 24Z" fill="#F0F0F0"/>
<path d="M23.9994 12.0007C23.9994 7.24316 21.2307 3.13241 17.2168 1.19141V22.8099C21.2307 20.869 23.9994 16.7582 23.9994 12.0007Z" fill="#D80027"/>
<path d="M0 12.0007C0 16.7582 2.76867 20.869 6.78262 22.81V1.19141C2.76867 3.13241 0 7.24316 0 12.0007Z" fill="#6DA544"/>
<path d="M8.86914 12.0005C8.86914 13.7294 10.2707 15.131 11.9996 15.131C13.7285 15.131 15.13 13.7294 15.13 12.0005V10.957H8.86914V12.0005Z" fill="#6DA544"/>
<path d="M16.1741 9.91458H13.0436C13.0436 9.3383 12.5764 8.87109 12.0001 8.87109C11.4238 8.87109 10.9566 9.3383 10.9566 9.91458H7.82617C7.82617 10.4909 8.32816 10.9581 8.90439 10.9581H8.86966C8.86966 11.5344 9.33681 12.0015 9.91314 12.0015C9.91314 12.5779 10.3803 13.045 10.9566 13.045H13.0436C13.6199 13.045 14.0871 12.5779 14.0871 12.0015C14.6634 12.0015 15.1306 11.5344 15.1306 10.9581H15.0958C15.6721 10.9581 16.1741 10.4909 16.1741 9.91458Z" fill="#FF9811"/>
</g>
<defs>
<clipPath id="clip0_6902_140683">
<rect width="24" height="24" fill="white"/>
</clipPath>
</defs>
</svg>
