<svg width="61" height="62" viewBox="0 0 61 62" fill="none" xmlns="http://www.w3.org/2000/svg">
<path fill-rule="evenodd" clip-rule="evenodd" d="M56.1391 31.4289C56.1391 45.3521 44.8521 56.6391 30.9289 56.6391C17.0057 56.6391 5.71875 45.3521 5.71875 31.4289C5.71875 17.5057 17.0057 6.21875 30.9289 6.21875C44.8521 6.21875 56.1391 17.5057 56.1391 31.4289ZM36.9849 22.0617C40.4917 23.2659 43.057 25.0691 42.5537 28.4249C42.1882 30.8823 40.8209 32.0707 39.0042 32.4869C41.4966 33.7794 42.346 36.2324 41.5568 39.1984C40.0581 43.4669 36.4959 43.8262 31.7579 42.9341L30.6074 47.5225L27.8301 46.8321L28.9648 42.3052C28.2447 42.1271 27.5089 41.9363 26.7509 41.733L25.6115 46.282L22.8373 45.5916L23.9862 40.9938L18.3921 39.5878L19.772 36.4196C19.772 36.4196 21.8198 36.9602 21.7913 36.9208C22.5778 37.1147 22.9275 36.604 23.0652 36.2651L26.1827 23.8113C26.2176 23.2234 26.0134 22.4826 24.8883 22.202C24.931 22.172 22.8706 21.7023 22.8706 21.7023L23.6096 18.7469L29.2117 20.1293L30.3511 15.5834L33.1268 16.2738L32.0111 20.7298C32.758 20.8985 33.5081 21.0703 34.2377 21.2515L35.3454 16.8239L38.1227 17.5143L36.9849 22.0617ZM30.3391 29.6435C32.231 30.1451 36.3477 31.2365 37.0652 28.3748C37.7972 25.447 33.7977 24.5627 31.8394 24.1298L31.8393 24.1297C31.6175 24.0807 31.4218 24.0374 31.2622 23.9976L29.8791 29.5239C30.0108 29.5565 30.1656 29.5975 30.3391 29.6435ZM28.1945 38.5406C30.4604 39.1374 35.4163 40.4428 36.2048 37.2895C37.0119 34.0654 32.207 32.9915 29.8625 32.4675C29.6006 32.409 29.3693 32.3573 29.1801 32.3102L27.6545 38.4008C27.8096 38.4392 27.9912 38.487 28.1945 38.5406Z" fill="#F7931A"/>
</svg>
