<svg width="61" height="62" viewBox="0 0 61 62" fill="none" xmlns="http://www.w3.org/2000/svg">
<g clip-path="url(#clip0_1706_19229)">
<path d="M44.9132 45.3487C52.8378 37.4241 52.8378 24.5759 44.9132 16.6513C36.9886 8.72678 24.1404 8.72678 16.2159 16.6513C8.29131 24.5759 8.29131 37.4241 16.2159 45.3487C24.1404 53.2732 36.9886 53.2732 44.9132 45.3487Z" fill="#585DCC"/>
<path d="M30.5645 0.5C13.7197 0.5 0.0644531 14.1553 0.0644531 31C0.0644531 47.8447 13.7197 61.5 30.5645 61.5C47.4092 61.5 61.0645 47.8447 61.0645 31C61.0645 14.1553 47.4057 0.5 30.5645 0.5ZM49.9102 39.1705C47.8864 43.9851 44.1459 47.876 39.4147 50.0877C34.6834 52.2994 29.2992 52.6742 24.3072 51.1392C19.3152 49.6043 15.0717 46.2691 12.4005 41.7813C9.72925 37.2935 8.82096 31.9732 9.85193 26.8533C10.8829 21.7334 13.7796 17.1793 17.9795 14.075C22.1795 10.9708 27.3832 9.53801 32.5802 10.0548C37.7772 10.5715 42.5968 13.001 46.1032 16.8715C49.6097 20.742 51.5529 25.7774 51.5554 31C51.5593 33.8066 50.9983 36.5853 49.9058 39.1705H49.9102Z" fill="#585DCC"/>
<path d="M4.83194 35.4361C4.96447 35.4108 5.10167 35.4323 5.2202 35.4967C5.33872 35.5612 5.43127 35.6647 5.48211 35.7897C5.53294 35.9146 5.53893 36.0534 5.49904 36.1822C5.45915 36.3111 5.37586 36.4222 5.26332 36.4967C5.15078 36.5711 5.01594 36.6042 4.88172 36.5904C4.7475 36.5767 4.6222 36.5169 4.5271 36.4212C4.43201 36.3254 4.37299 36.1998 4.3601 36.0655C4.3472 35.9312 4.38121 35.7965 4.45635 35.6845C4.49869 35.6196 4.55386 35.5641 4.61845 35.5214C4.68304 35.4787 4.7557 35.4497 4.83194 35.4361Z" fill="#2A2FAB"/>
<path d="M6.0331 31.1201L6.04094 31.5698L2.53432 31.6273L2.52734 31.1768L6.0331 31.1201Z" fill="white"/>
<path d="M6.09984 28.8873L6.04581 29.3344L2.56445 28.9169L2.62981 28.3732L5.54125 27.0085V26.9885L4.86764 26.9275L2.83024 26.6835L2.88427 26.2373L6.36563 26.6538L6.30985 27.1201L3.25985 28.5475V28.5666L3.93347 28.6276L6.09984 28.8873Z" fill="white"/>
<path d="M4.03759 23.2867L7.00045 24.1155L6.87932 24.5512L3.91646 23.7225L3.65503 24.6645L3.24023 24.5486L3.89032 22.2314L4.30512 22.3473L4.03759 23.2867Z" fill="white"/>
<path d="M8.6283 16.7967C8.76061 16.8785 8.855 17.0096 8.89071 17.161C8.92642 17.3124 8.90052 17.4718 8.8187 17.6041C8.73689 17.7364 8.60586 17.8308 8.45445 17.8665C8.30303 17.9022 8.14364 17.8763 8.01132 17.7945C7.94483 17.7549 7.88727 17.7019 7.84227 17.6389C7.79728 17.5759 7.76582 17.5043 7.74989 17.4285C7.72341 17.3158 7.73095 17.1977 7.77156 17.0892C7.81217 16.9808 7.88402 16.8868 7.97804 16.8192C8.07206 16.7516 8.18402 16.7133 8.29976 16.7093C8.41551 16.7053 8.52983 16.7357 8.6283 16.7967Z" fill="white"/>
<path d="M13.2166 13.6471L12.8977 13.9678L10.3984 11.5121L10.7148 11.1914L13.2166 13.6471Z" fill="white"/>
<path d="M14.6812 12.2805L14.3265 12.5585L12.1602 9.80561L12.5959 9.4675L15.6215 10.5568L15.6363 10.5446L15.2006 10.0217L13.9309 8.41568L14.2856 8.1377L16.4519 10.8905L16.0825 11.1799L12.9139 10.0348L12.8983 10.047L13.334 10.5699L14.6812 12.2805Z" fill="white"/>
<path d="M17.1393 6.88689L18.6547 9.56304L18.2634 9.78439L16.748 7.10823L15.8949 7.59013L15.6875 7.21542L17.7789 6.03027L17.9916 6.40499L17.1393 6.88689Z" fill="white"/>
<path d="M21.3685 4.50879L21.5245 4.90965L20.037 5.4874L20.4396 6.52179L21.7816 5.99893L21.9341 6.3902L20.5921 6.91306L20.9947 7.94745L22.4848 7.37492L22.6408 7.77577L20.7306 8.51736L19.4609 5.25212L21.3685 4.50879Z" fill="white"/>
<path d="M24.5563 7.23161L24.1206 7.32921L23.3555 3.91234L24.5214 3.65091C24.8018 3.58314 25.0975 3.62821 25.3449 3.7764C25.5676 3.90686 25.7316 4.118 25.8028 4.36607C25.874 4.61413 25.8471 4.88009 25.7275 5.10881C25.618 5.32243 25.4387 5.49217 25.2195 5.58984L25.2134 5.6064L26.4839 6.78196L26.4883 6.80113L25.9654 6.91703L24.7349 5.73973L24.2478 5.84779L24.5563 7.23161ZM23.8879 4.23477L24.1563 5.43734L24.8639 5.27961C25.0329 5.24627 25.182 5.14764 25.2787 5.00511C25.3263 4.9369 25.3586 4.8593 25.3737 4.77753C25.3887 4.69576 25.386 4.61171 25.3659 4.53106C25.327 4.37281 25.2274 4.23621 25.0886 4.15077C24.9499 4.06533 24.7831 4.03791 24.6243 4.07443L23.8879 4.23477Z" fill="white"/>
<path d="M28.3754 6.58277L27.877 6.60194L29.0516 3.04826L29.5606 3.02734L31.028 6.47036L30.5287 6.49127L30.1514 5.55623L28.6787 5.6181L28.3754 6.58277ZM29.3192 3.59203L28.8129 5.19372L29.9771 5.14579L29.3383 3.59116L29.3192 3.59203Z" fill="white"/>
<path d="M34.0927 6.85615C33.8529 6.82848 33.6212 6.75235 33.4117 6.63239C33.2022 6.51242 33.0193 6.35113 32.874 6.1583C32.7288 5.96547 32.6243 5.74512 32.5668 5.51066C32.5094 5.27619 32.5002 5.03249 32.5398 4.79435C32.5676 4.55478 32.6436 4.32331 32.7631 4.11382C32.8826 3.90434 33.0432 3.72118 33.2353 3.57532C33.4274 3.42947 33.647 3.32394 33.8809 3.26508C34.1147 3.20621 34.3581 3.19521 34.5964 3.23275C34.839 3.25888 35.0727 3.33935 35.28 3.46819C35.4873 3.59703 35.6628 3.77092 35.7937 3.97695L35.4303 4.23838C35.3368 4.07865 35.2074 3.94285 35.0524 3.84168C34.8974 3.7405 34.721 3.67673 34.5371 3.6554C34.3588 3.62558 34.1764 3.6327 34.001 3.67632C33.8256 3.71994 33.661 3.79914 33.5175 3.90898C33.3707 4.02239 33.2486 4.1646 33.1587 4.32688C33.0688 4.48917 33.0129 4.66811 32.9947 4.85274C32.9616 5.03535 32.9663 5.2228 33.0084 5.40353C33.0505 5.58427 33.1292 5.75447 33.2395 5.90368C33.3477 6.04844 33.4844 6.16951 33.6412 6.25944C33.798 6.34936 33.9715 6.40623 34.1511 6.42654C34.5577 6.48463 34.9321 6.3638 35.2743 6.06403L35.5549 6.42654C35.3625 6.59983 35.1334 6.72734 34.8848 6.79951C34.6278 6.87456 34.3577 6.89388 34.0927 6.85615Z" fill="white"/>
<path d="M38.7275 4.69613L37.8326 7.63371L37.4012 7.503L38.2962 4.56541L37.3594 4.28045L37.4849 3.86914L39.7898 4.56628L39.6643 4.9776L38.7275 4.69613Z" fill="white"/>
<path d="M40.7258 8.74777L40.3145 8.56303L41.7541 5.37012L42.1654 5.55399L40.7258 8.74777Z" fill="white"/>
<path d="M46.1238 9.85159C45.9989 10.0577 45.8335 10.2362 45.6376 10.3764C45.4416 10.5166 45.2193 10.6156 44.9839 10.6672C44.5143 10.7688 44.0236 10.6806 43.6188 10.4219C43.214 10.1631 42.9278 9.75485 42.8228 9.28603C42.7317 8.81043 42.8267 8.31802 43.0881 7.91038C43.3495 7.50274 43.7573 7.21097 44.2275 7.09526C44.6975 6.99293 45.1889 7.08139 45.5936 7.34121C45.9984 7.60103 46.2834 8.01093 46.3861 8.48083C46.4376 8.71515 46.441 8.95752 46.3959 9.19318C46.3508 9.42884 46.2582 9.65285 46.1238 9.85159ZM43.4755 8.15927C43.3716 8.31041 43.2987 8.48064 43.261 8.66014C43.2233 8.83963 43.2215 9.02482 43.2559 9.20499C43.2941 9.37861 43.3661 9.543 43.4678 9.68878C43.5696 9.83456 43.699 9.95887 43.8488 10.0546C43.9986 10.1503 44.1658 10.2156 44.3408 10.2467C44.5159 10.2778 44.6953 10.2741 44.8689 10.2359C45.2268 10.1393 45.5358 9.91289 45.7359 9.60085C45.936 9.28881 46.0127 8.91346 45.9512 8.54793C45.9179 8.37309 45.8482 8.20722 45.7466 8.06113C45.6449 7.91504 45.5136 7.792 45.3613 7.70003C45.2129 7.6003 45.0454 7.53253 44.8694 7.50103C44.6934 7.46952 44.5128 7.47497 44.3391 7.51703C44.1597 7.56152 43.9911 7.64121 43.8428 7.75147C43.6946 7.86172 43.5697 8.00034 43.4755 8.15927Z" fill="white"/>
<path d="M46.6323 12.565L46.3047 12.2565L48.7142 9.71191L49.1133 10.0884L48.478 13.236L48.492 13.2499L48.9425 12.7454L50.3516 11.257L50.6793 11.5654L48.2706 14.11L47.929 13.7876L48.5974 10.4901L48.5835 10.4762L48.1338 10.9807L46.6323 12.565Z" fill="white"/>
<path d="M53.0896 17.9843C53.0241 18.0249 52.951 18.0518 52.8748 18.0635C52.7986 18.0752 52.7208 18.0714 52.6461 18.0522C52.5138 18.02 52.3968 17.9428 52.3151 17.8339C52.2333 17.725 52.1919 17.5912 52.1978 17.4551C52.2038 17.3191 52.2567 17.1894 52.3476 17.088C52.4385 16.9867 52.5618 16.92 52.6964 16.8994C52.831 16.8787 52.9685 16.9054 53.0856 16.9749C53.2027 17.0444 53.2921 17.1523 53.3385 17.2803C53.3849 17.4084 53.3854 17.5485 53.3401 17.6769C53.2947 17.8052 53.2062 17.9139 53.0896 17.9843Z" fill="white"/>
<path d="M53.9608 24.0412L53.8301 23.6107L57.1851 22.5938L57.3167 23.0242L53.9608 24.0412Z" fill="white"/>
<path d="M54.517 26.2574L54.4473 25.813L57.9121 25.2744L57.9992 25.8156L55.5662 27.9157V27.9349L56.2302 27.812L58.258 27.4966L58.3277 27.941L54.8629 28.4795L54.7906 28.0159L57.3404 25.8182V25.7981L56.6764 25.9219L54.517 26.2574Z" fill="white"/>
<path d="M58.0186 31.3736L54.9434 31.323L54.9503 30.8734L58.0256 30.9231L58.0422 29.9453L58.4726 29.9549L58.4334 32.3609L58.0029 32.3539L58.0186 31.3736Z" fill="white"/>
<path d="M55.892 36.7318C55.8163 36.7172 55.7445 36.6875 55.6807 36.6443C55.6168 36.6012 55.5624 36.5456 55.5207 36.4808C55.4762 36.4174 55.4454 36.3452 55.4304 36.2692C55.4154 36.1931 55.4165 36.1147 55.4336 36.039C55.4567 35.9249 55.5131 35.8202 55.5957 35.7382C55.6783 35.6562 55.7833 35.6005 55.8976 35.5782C56.0119 35.556 56.1302 35.5681 56.2375 35.6131C56.3449 35.6581 56.4365 35.7339 56.5007 35.831C56.5649 35.9281 56.5989 36.0421 56.5984 36.1585C56.5978 36.2749 56.5627 36.3885 56.4975 36.4849C56.4323 36.5814 56.34 36.6563 56.2322 36.7003C56.1244 36.7442 56.006 36.7552 55.892 36.7318Z" fill="white"/>
<path d="M39.9447 55.0963C39.8952 54.9764 39.8889 54.843 39.9267 54.7189C39.9646 54.5948 40.0442 54.4876 40.1522 54.4156C40.2601 54.3436 40.3897 54.3112 40.5188 54.324C40.6479 54.3368 40.7686 54.3939 40.8604 54.4857C40.9521 54.5774 41.0092 54.6981 41.022 54.8272C41.0348 54.9564 41.0024 55.0859 40.9304 55.1939C40.8584 55.3018 40.7513 55.3815 40.6272 55.4193C40.503 55.4571 40.3696 55.4508 40.2497 55.4013C40.1807 55.374 40.1181 55.3329 40.0656 55.2804C40.0131 55.228 39.972 55.1653 39.9447 55.0963Z" fill="white"/>
<path d="M20.0061 54.6672C20.0339 54.5988 20.0751 54.5367 20.1274 54.4846C20.1796 54.4325 20.2418 54.3915 20.3103 54.3639C20.4305 54.3142 20.5642 54.3078 20.6886 54.3456C20.8131 54.3835 20.9205 54.4634 20.9926 54.5716C21.0648 54.6798 21.0972 54.8097 21.0843 54.9392C21.0713 55.0686 21.0139 55.1895 20.9218 55.2814C20.8297 55.3732 20.7086 55.4303 20.5792 55.4428C20.4497 55.4554 20.3199 55.4226 20.2119 55.3502C20.1038 55.2777 20.0243 55.17 19.9868 55.0455C19.9493 54.9209 19.9561 54.7872 20.0061 54.6672Z" fill="white"/>
<path d="M48.7324 49.6558V50.2021C48.7324 50.2692 48.7594 50.2963 48.8265 50.2963H49.4365C49.4548 50.2931 49.4736 50.2959 49.4903 50.3042C49.5069 50.3125 49.5204 50.3259 49.5289 50.3424C49.5374 50.359 49.5403 50.3778 49.5373 50.3961C49.5343 50.4145 49.5256 50.4314 49.5123 50.4444L48.2452 52.1812C48.213 52.2256 48.1799 52.2395 48.1398 52.2265C48.0997 52.2134 48.0858 52.182 48.0858 52.1289V51.0457C48.0858 50.969 48.0605 50.9437 47.9847 50.9437H47.3834C47.3646 50.9464 47.3454 50.9432 47.3284 50.9346C47.3114 50.9261 47.2975 50.9125 47.2884 50.8958C47.2813 50.8789 47.2794 50.8602 47.283 50.8422C47.2866 50.8242 47.2954 50.8077 47.3084 50.7947C47.7296 50.2167 48.1505 49.6386 48.5711 49.0606C48.5791 49.0432 48.5925 49.029 48.6094 49.02C48.6262 49.011 48.6455 49.0078 48.6644 49.0109C48.7088 49.0179 48.7332 49.0501 48.7341 49.1041L48.7324 49.6558Z" fill="white"/>
<path d="M13.5149 50.0825C13.5149 50.2751 13.5149 50.4668 13.5149 50.6594C13.517 50.9021 13.4589 51.1417 13.3458 51.3565C13.2339 51.5575 13.0766 51.7296 12.8866 51.8593C12.7219 51.9726 12.5528 52.078 12.382 52.1826C12.3349 52.2125 12.2801 52.2284 12.2243 52.2284C12.1684 52.2284 12.1137 52.2125 12.0666 52.1826C11.8412 52.0622 11.6289 51.9188 11.433 51.7547C11.1817 51.5504 11.0145 51.2607 10.9633 50.9408C10.9464 50.8292 10.9368 50.7165 10.9346 50.6036C10.9346 50.228 10.9346 49.8515 10.9346 49.476C10.9299 49.4328 10.9422 49.3896 10.9689 49.3554C10.9955 49.3212 11.0345 49.2988 11.0775 49.293C11.4435 49.1997 11.8095 49.1056 12.1764 49.015C12.2168 49.0068 12.2586 49.0083 12.2984 49.0193C12.6574 49.1088 13.0161 49.1997 13.3746 49.2921C13.4175 49.2984 13.4564 49.321 13.483 49.3553C13.5096 49.3896 13.522 49.4328 13.5175 49.476V50.0825H13.5149Z" fill="white"/>
<path d="M31.6641 56.2096C31.6641 56.1059 31.6641 56.0109 31.6641 55.915C31.6645 55.8802 31.6761 55.8465 31.6971 55.8187C31.7181 55.791 31.7475 55.7707 31.7809 55.7608C31.8127 55.751 31.8468 55.7518 31.8782 55.7629C31.9096 55.7741 31.9366 55.795 31.9552 55.8227C31.9724 55.8487 31.9826 55.8787 31.9848 55.9098C31.9848 56.18 31.9848 56.4501 31.9848 56.7211C31.9847 56.7419 31.9804 56.7625 31.9724 56.7816C31.9643 56.8008 31.9525 56.8181 31.9377 56.8327C31.9228 56.8473 31.9053 56.8588 31.886 56.8666C31.8667 56.8743 31.8461 56.8782 31.8253 56.878H31.0227C30.98 56.878 30.939 56.861 30.9087 56.8308C30.8785 56.8005 30.8615 56.7595 30.8615 56.7168C30.8615 56.674 30.8785 56.633 30.9087 56.6028C30.939 56.5725 30.98 56.5555 31.0227 56.5555C31.1796 56.5555 31.3356 56.5555 31.4916 56.5555H31.5386C31.5331 56.5461 31.527 56.5371 31.5203 56.5285C31.3113 56.2803 31.0149 56.1219 30.6925 56.0858C30.3668 56.0459 30.0383 56.1319 29.774 56.3263C29.5098 56.5207 29.3299 56.8088 29.2712 57.1316C29.2598 57.206 29.2528 57.2811 29.2502 57.3564C29.2512 57.3804 29.2468 57.4043 29.2374 57.4264C29.2279 57.4485 29.2137 57.4682 29.1956 57.4841C29.1776 57.5 29.1562 57.5116 29.1331 57.5182C29.11 57.5247 29.0857 57.526 29.062 57.522C29.0225 57.5161 28.9867 57.4957 28.9615 57.4647C28.9363 57.4338 28.9237 57.3945 28.9261 57.3546C28.9258 56.9996 29.0453 56.6548 29.2651 56.376C29.5112 56.0511 29.8746 55.8353 30.2777 55.7747C30.5052 55.7348 30.7387 55.7453 30.9617 55.8055C31.1847 55.8658 31.3918 55.9743 31.5682 56.1233C31.5979 56.1512 31.6275 56.1826 31.6641 56.2096Z" fill="white"/>
<path d="M29.4056 58.5111C29.4056 58.5347 29.4056 58.5477 29.4056 58.5608C29.4056 58.6479 29.4056 58.7264 29.4056 58.81C29.4068 58.8311 29.4037 58.8522 29.3963 58.872C29.389 58.8918 29.3777 58.9099 29.363 58.9251C29.3484 58.9403 29.3307 58.9524 29.3112 58.9605C29.2917 58.9685 29.2708 58.9725 29.2496 58.9721C29.2285 58.9721 29.2075 58.9679 29.1881 58.9596C29.1686 58.9514 29.1509 58.9393 29.1362 58.9241C29.1215 58.9089 29.11 58.8909 29.1024 58.8711C29.0948 58.8514 29.0912 58.8303 29.0919 58.8092C29.0919 58.5477 29.0919 58.2802 29.0919 58.0162C29.0911 57.9946 29.0947 57.9731 29.1025 57.953C29.1103 57.9329 29.1222 57.9146 29.1374 57.8993C29.1527 57.8841 29.1709 57.8721 29.1909 57.8641C29.211 57.8562 29.2324 57.8525 29.254 57.8532C29.5198 57.8532 29.7856 57.8532 30.0514 57.8532C30.0896 57.8523 30.1268 57.8651 30.1563 57.8895C30.1857 57.9138 30.2054 57.948 30.2117 57.9857C30.218 58.0229 30.2105 58.0611 30.1906 58.0932C30.1707 58.1253 30.1398 58.149 30.1036 58.1599C30.0817 58.1654 30.0591 58.1677 30.0365 58.1669H29.5799C29.5651 58.1669 29.5512 58.1669 29.5276 58.1669C29.5494 58.1931 29.5642 58.2131 29.5808 58.2305C29.7422 58.4068 29.9493 58.5351 30.179 58.601C30.4088 58.667 30.6524 58.6681 30.8827 58.6042C31.1131 58.5404 31.3213 58.414 31.4843 58.2392C31.6473 58.0644 31.7588 57.8478 31.8064 57.6136C31.8199 57.5343 31.8278 57.4543 31.8299 57.3739C31.8292 57.3525 31.8329 57.3313 31.8406 57.3113C31.8484 57.2914 31.8602 57.2733 31.8752 57.258C31.8902 57.2428 31.9081 57.2308 31.9279 57.2227C31.9477 57.2146 31.9689 57.2106 31.9903 57.211C32.0114 57.2113 32.0322 57.2159 32.0515 57.2244C32.0707 57.233 32.0881 57.2454 32.1024 57.2609C32.1167 57.2764 32.1278 57.2946 32.1349 57.3145C32.142 57.3344 32.145 57.3555 32.1437 57.3765C32.1421 57.7406 32.0163 58.0933 31.7872 58.3762C31.5581 58.6592 31.2394 58.8556 30.8836 58.9329C30.6298 58.9917 30.3655 58.987 30.114 58.919C29.8626 58.8511 29.6318 58.722 29.4422 58.5434L29.4056 58.5111Z" fill="white"/>
<g clip-path="url(#clip1_1706_19229)">
<path d="M32.6394 30.2009L32.1832 29.4525L30.8799 27.3179C30.7573 27.1179 30.6366 26.9207 30.5177 26.7271C29.8283 25.6055 29.2172 24.6128 28.8513 24.0193C28.125 22.5501 27.1766 21.0211 26.008 19.9289C25.6725 19.5759 25.2808 19.2708 24.8356 19.0293C22.3102 17.657 19.0263 18.8201 17.5018 21.6257C15.9774 24.4322 16.7885 27.8193 19.3138 29.1917C19.7397 29.423 20.1876 29.5816 20.6438 29.6737C20.9166 29.7521 21.8918 29.9991 23.4356 30.0065V30.0157C23.4356 30.0157 25.7084 30.0645 28.3923 30.1198C28.3942 30.1198 28.396 30.1198 28.3969 30.1207C28.5518 30.1235 28.7075 30.1272 28.8642 30.13C29.3536 30.1401 29.8523 30.1502 30.3518 30.1604C30.3933 30.1613 30.4357 30.1622 30.4772 30.1631C30.5186 30.1641 30.5592 30.165 30.6016 30.1659H30.6071C30.7371 30.1687 30.8679 30.1714 30.9979 30.1742C31.3675 30.1816 31.7325 30.189 32.0919 30.1954C32.2772 30.1991 32.4597 30.2028 32.6412 30.2065C32.6412 30.2046 32.6394 30.2028 32.6376 30.2009H32.6394ZM24.2651 28.0949L23.6955 28.1097C22.466 28.1097 21.6844 27.9014 21.4816 27.8396C21.1738 27.7723 20.8706 27.6617 20.5802 27.5041C18.8604 26.5695 18.2558 24.3584 19.2309 22.5649C20.2051 20.7722 22.3886 20.0754 24.1084 21.01C24.4116 21.175 24.6798 21.3796 24.9112 21.6137C26.2476 22.8266 27.1988 24.8119 27.7103 26.0847C27.9988 26.8018 28.1472 27.2921 28.1472 27.2921C26.6338 27.8295 25.3195 28.0415 24.2651 28.0949ZM30.4569 28.6203C30.4569 28.6203 30.4532 28.6175 30.4523 28.6157C30.4541 28.6157 30.456 28.6147 30.4587 28.6138C30.4587 28.6157 30.4569 28.6175 30.4569 28.6203Z" fill="url(#paint0_angular_1706_19229)"/>
<path d="M43.4945 21.9011C41.9701 19.0955 38.6862 17.9324 36.1608 19.3047C35.7156 19.5462 35.3239 19.8513 34.9884 20.2043C34.087 21.0467 33.3156 22.1499 32.6768 23.2845C32.6768 23.2873 32.6741 23.2891 32.6722 23.2919C32.5874 23.4264 31.9598 24.4265 31.1211 25.7647L31.1192 25.7666L30.5192 26.7242V26.726L30.1902 27.2495L29.8547 27.786C29.8197 27.8422 29.7846 27.8984 29.7487 27.9546H29.7496C29.7164 28.0081 29.6823 28.0615 29.6482 28.1159C29.615 28.1694 29.5819 28.2238 29.5468 28.2781C29.4805 28.386 29.4123 28.4938 29.3441 28.6026C29.3072 28.6625 29.2703 28.7215 29.2326 28.7814C29.1643 28.891 29.0952 29.0016 29.027 29.1113C28.815 29.4514 28.604 29.7897 28.3984 30.1196C28.5533 30.1224 28.709 30.1261 28.8657 30.1289C29.3551 30.139 29.8538 30.1491 30.3533 30.1593C30.3948 30.1602 30.4372 30.1611 30.4787 30.162C30.5201 30.163 30.5607 30.1639 30.6031 30.1648H30.6086C30.7386 30.1676 30.8694 30.1703 30.9994 30.1731C31.369 30.1805 31.734 30.1878 32.0934 30.1943C32.0731 30.1731 32.0529 30.151 32.0326 30.1298C32.0538 30.1519 32.0741 30.1731 32.0943 30.1943C32.2796 30.198 32.4621 30.2017 32.6437 30.2053C34.769 30.2477 36.5276 30.28 36.9101 30.28C36.9414 30.28 36.9672 30.2782 36.9894 30.2745C38.864 30.3344 40.0475 30.0367 40.3516 29.9491C40.8078 29.857 41.2558 29.6984 41.6816 29.4671C44.207 28.0947 45.018 24.7076 43.4936 21.9011H43.4945ZM36.4723 29.5408C36.4723 29.5408 36.4751 29.5316 36.476 29.5261C36.476 29.5316 36.4732 29.5362 36.4714 29.5408H36.4723ZM40.4161 27.7795C40.1267 27.9371 39.8235 28.0477 39.5147 28.115C39.1239 28.2339 36.5976 28.8984 32.8492 27.5675C32.8492 27.5675 33.9967 23.7841 36.0852 21.8891C36.3165 21.655 36.5847 21.4504 36.888 21.2854C38.6078 20.3508 40.7922 21.0476 41.7664 22.8403C42.7406 24.6338 42.136 26.8449 40.4161 27.7795Z" fill="url(#paint1_angular_1706_19229)"/>
<path d="M36.0011 36.8492C35.932 36.5128 35.6002 35.1423 34.4702 33.2879C34.3329 33.004 33.5762 31.7395 32.6453 30.2058C32.6453 30.2058 32.6434 30.2012 32.6416 30.1994L32.1854 29.451L30.8821 27.3164C30.7595 27.1164 30.6388 26.9191 30.5199 26.7256L30.1918 27.2491L29.8563 27.7855C29.8213 27.8417 29.7863 27.898 29.7503 27.9542H29.7512C29.718 28.0076 29.6839 28.0611 29.6498 28.1155C29.6167 28.1689 29.5835 28.2233 29.5485 28.2777C29.4821 28.3855 29.4139 28.4934 29.3457 28.6021C29.3088 28.662 29.272 28.721 29.2342 28.7809C29.166 28.8906 29.0968 29.0012 29.0286 29.1109C28.8167 29.451 28.6056 29.7892 28.4001 30.1192C28.0941 30.6095 27.8 31.0833 27.5282 31.5211C26.7438 32.7856 26.1521 33.7524 26.0304 33.981C25.5401 34.8372 25.1281 35.7368 24.882 36.6336C24.7253 37.0944 24.6378 37.5829 24.6313 38.0898C24.5908 40.9636 27.1475 43.3295 30.3402 43.3738C33.5338 43.4189 36.155 41.1249 36.1956 38.2511C36.202 37.7663 36.1347 37.2963 36.0029 36.8492H36.0011ZM34.0914 33.7755C34.0914 33.7755 34.0988 33.769 34.1015 33.7662C34.0988 33.769 34.096 33.7718 34.0932 33.7755C34.0923 33.7755 34.0923 33.7764 34.0914 33.7764V33.7755ZM26.9079 33.498L26.8977 33.4888C26.9014 33.4916 26.9051 33.4953 26.9088 33.498H26.9079ZM30.366 41.406C28.3254 41.3774 26.6931 39.7682 26.7208 37.8115C26.7254 37.4668 26.7816 37.134 26.8821 36.8197C27.1383 35.828 27.6729 34.8308 28.2498 33.9626C28.2498 33.9626 28.2526 33.958 28.2581 33.9497C28.26 33.9469 28.2618 33.9441 28.2636 33.9404C28.2683 33.934 28.2729 33.9257 28.2793 33.9165C28.6544 33.3589 29.0425 32.8575 29.3844 32.4455C29.9623 31.7496 30.4038 31.3146 30.4038 31.3146C33.3246 34.0133 33.9117 36.5589 33.9882 36.9598C34.072 37.264 34.1153 37.5847 34.1107 37.9147C34.0831 39.8714 32.4066 41.4346 30.366 41.406Z" fill="url(#paint2_angular_1706_19229)"/>
</g>
</g>
<defs>
<radialGradient id="paint0_angular_1706_19229" cx="0" cy="0" r="1" gradientUnits="userSpaceOnUse" gradientTransform="translate(23.8785 25.2503) rotate(27.1924) scale(10.6788 9.19474)">
<stop stop-color="white"/>
<stop offset="0.247838" stop-color="white" stop-opacity="0.7"/>
<stop offset="0.507856" stop-color="white" stop-opacity="0.3"/>
<stop offset="0.754314" stop-color="white" stop-opacity="0.7"/>
<stop offset="1" stop-color="white"/>
</radialGradient>
<radialGradient id="paint1_angular_1706_19229" cx="0" cy="0" r="1" gradientUnits="userSpaceOnUse" gradientTransform="translate(35.5246 25.4103) rotate(145.868) scale(9.96315 8.50665)">
<stop stop-color="white"/>
<stop offset="0.247838" stop-color="white" stop-opacity="0.7"/>
<stop offset="0.507856" stop-color="white" stop-opacity="0.3"/>
<stop offset="0.754314" stop-color="white"/>
<stop offset="1" stop-color="white"/>
</radialGradient>
<radialGradient id="paint2_angular_1706_19229" cx="0" cy="0" r="1" gradientUnits="userSpaceOnUse" gradientTransform="translate(29.8258 36.3539) rotate(-89.6411) scale(10.6697 11.3007)">
<stop stop-color="white"/>
<stop offset="0.247838" stop-color="white" stop-opacity="0.7"/>
<stop offset="0.507856" stop-color="white" stop-opacity="0.3"/>
<stop offset="0.754314" stop-color="white" stop-opacity="0.7"/>
<stop offset="0.894617" stop-color="white"/>
</radialGradient>
<clipPath id="clip0_1706_19229">
<rect width="61" height="61" fill="white" transform="translate(0 0.5)"/>
</clipPath>
<clipPath id="clip1_1706_19229">
<rect width="27.5371" height="27.5371" fill="white" transform="translate(16.7324 17.2314)"/>
</clipPath>
</defs>
</svg>
