<svg width="61" height="62" viewBox="0 0 61 62" fill="none" xmlns="http://www.w3.org/2000/svg">
<path d="M29.9923 28.2042C24.2227 26.7046 22.3673 25.1542 22.3673 22.7396C22.3673 19.9692 24.9344 18.0375 29.2298 18.0375C32.839 18.0375 34.6436 19.41 35.3044 21.5958C35.6094 22.6125 36.4482 23.375 37.5157 23.375H38.2782C39.9557 23.375 41.1502 21.7229 40.5657 20.1471C39.4982 17.1479 37.0073 14.6571 33.0423 13.6913V11.9375C33.0423 9.82792 31.3394 8.125 29.2298 8.125C27.1202 8.125 25.4173 9.82792 25.4173 11.9375V13.615C20.4865 14.6825 16.5215 17.885 16.5215 22.7904C16.5215 28.6617 21.3761 31.5846 28.4673 33.2875C34.8215 34.8125 36.0923 37.0492 36.0923 39.4129C36.0923 41.1667 34.8469 43.9625 29.2298 43.9625C25.0361 43.9625 22.8757 42.4629 22.0369 40.3279C21.6557 39.3367 20.7915 38.625 19.7494 38.625H19.0377C17.3348 38.625 16.1402 40.3533 16.7757 41.9292C18.2244 45.4621 21.6048 47.5463 25.4173 48.3596V50.0625C25.4173 52.1721 27.1202 53.875 29.2298 53.875C31.3394 53.875 33.0423 52.1721 33.0423 50.0625V48.4104C37.9986 47.47 41.9382 44.5979 41.9382 39.3875C41.9382 32.1692 35.7619 29.7038 29.9923 28.2042Z" fill="#585DCC"/>
</svg>
