<svg width="61" height="62" viewBox="0 0 61 62" fill="none" xmlns="http://www.w3.org/2000/svg">
<path fill-rule="evenodd" clip-rule="evenodd" d="M6.04581 12.2646C7.47578 10.8346 9.41522 10.0312 11.4375 10.0312H49.5625C51.5848 10.0312 53.5242 10.8346 54.9542 12.2646C56.3842 13.6945 57.1875 15.634 57.1875 17.6563V44.3438C57.1875 46.366 56.3842 48.3055 54.9542 49.7354C53.5242 51.1654 51.5848 51.9688 49.5625 51.9688H11.4375C9.41522 51.9688 7.47578 51.1654 6.04581 49.7354C4.61585 48.3055 3.8125 46.366 3.8125 44.3438V17.6563C3.8125 15.634 4.61585 13.6945 6.04581 12.2646ZM7.625 25.2813V44.3438C7.625 45.3549 8.02667 46.3246 8.74166 47.0396C9.45664 47.7546 10.4264 48.1563 11.4375 48.1563H49.5625C50.5736 48.1563 51.5434 47.7546 52.2583 47.0396C52.9733 46.3246 53.375 45.3549 53.375 44.3438V25.2813H7.625ZM53.375 19.5625H7.625V17.6563C7.625 16.6451 8.02667 15.6754 8.74166 14.9604C9.45664 14.2454 10.4264 13.8438 11.4375 13.8438H49.5625C50.5736 13.8438 51.5434 14.2454 52.2583 14.9604C52.9733 15.6754 53.375 16.6451 53.375 17.6563V19.5625ZM11.4375 36.7188C11.4375 35.666 12.291 34.8125 13.3438 34.8125H28.5938C29.6465 34.8125 30.5 35.666 30.5 36.7188C30.5 37.7715 29.6465 38.625 28.5938 38.625H13.3438C12.291 38.625 11.4375 37.7715 11.4375 36.7188ZM11.4375 42.4375C11.4375 41.3847 12.291 40.5313 13.3438 40.5313H20.9688C22.0215 40.5313 22.875 41.3847 22.875 42.4375C22.875 43.4903 22.0215 44.3438 20.9688 44.3438H13.3438C12.291 44.3438 11.4375 43.4903 11.4375 42.4375Z" fill="#585DCC"/>
</svg>
