<svg width="16" height="16" viewBox="0 0 16 16" fill="none" xmlns="http://www.w3.org/2000/svg">
<g clip-path="url(#clip0_5847_5485)">
<path d="M12.9533 8.65333C12.98 8.44 13 8.22667 13 8C13 7.77333 12.98 7.56 12.9533 7.34667L14.36 6.24667C14.4867 6.14667 14.52 5.96667 14.44 5.82L13.1067 3.51333C13.0267 3.36667 12.8467 3.31333 12.7 3.36667L11.04 4.03333C10.6933 3.76667 10.32 3.54667 9.91333 3.38L9.66 1.61333C9.64 1.45333 9.5 1.33333 9.33333 1.33333H6.66667C6.5 1.33333 6.36 1.45333 6.34 1.61333L6.08667 3.38C5.68 3.54667 5.30667 3.77333 4.96 4.03333L3.3 3.36667C3.14667 3.30667 2.97333 3.36667 2.89333 3.51333L1.56 5.82C1.47333 5.96667 1.51333 6.14667 1.64 6.24667L3.04667 7.34667C3.02 7.56 3 7.78 3 8C3 8.22 3.02 8.44 3.04667 8.65333L1.64 9.75333C1.51333 9.85333 1.48 10.0333 1.56 10.18L2.89333 12.4867C2.97333 12.6333 3.15333 12.6867 3.3 12.6333L4.96 11.9667C5.30667 12.2333 5.68 12.4533 6.08667 12.62L6.34 14.3867C6.36 14.5467 6.5 14.6667 6.66667 14.6667H9.33333C9.5 14.6667 9.64 14.5467 9.66 14.3867L9.91333 12.62C10.32 12.4533 10.6933 12.2267 11.04 11.9667L12.7 12.6333C12.8533 12.6933 13.0267 12.6333 13.1067 12.4867L14.44 10.18C14.52 10.0333 14.4867 9.85333 14.36 9.75333L12.9533 8.65333ZM8 10.3333C6.71333 10.3333 5.66667 9.28667 5.66667 8C5.66667 6.71333 6.71333 5.66667 8 5.66667C9.28667 5.66667 10.3333 6.71333 10.3333 8C10.3333 9.28667 9.28667 10.3333 8 10.3333Z" fill="#585DCC"/>
</g>
<defs>
<clipPath id="clip0_5847_5485">
<rect width="16" height="16" fill="white"/>
</clipPath>
</defs>
</svg>
