<svg width="17" height="16" viewBox="0 0 17 16" fill="none" xmlns="http://www.w3.org/2000/svg">
<g clip-path="url(#clip0_8062_213397)">
<path d="M9.74224 7.53473L9.47716 7.09989L8.71993 5.85962C8.6487 5.74341 8.57855 5.62881 8.50947 5.51635C8.1089 4.86461 7.75384 4.28786 7.54124 3.94298C7.11925 3.08936 6.5682 2.20092 5.88915 1.56633C5.69422 1.36122 5.46663 1.18397 5.20797 1.04366C3.74064 0.246265 1.83257 0.922095 0.946813 2.55223C0.0610581 4.18289 0.532318 6.15094 1.99965 6.94833C2.24706 7.08275 2.50733 7.17486 2.77241 7.22841C2.93092 7.27393 3.49751 7.41745 4.39451 7.42174V7.42709C4.39451 7.42709 5.71511 7.45547 7.27455 7.48761C7.27562 7.48761 7.27669 7.48761 7.27723 7.48814C7.3672 7.48975 7.4577 7.49189 7.54874 7.4935C7.8331 7.49939 8.12282 7.50528 8.41307 7.51117C8.43717 7.5117 8.4618 7.51224 8.4859 7.51277C8.51 7.51331 8.53357 7.51385 8.5582 7.51438H8.56141C8.63692 7.51599 8.71297 7.51759 8.78847 7.5192C9.00322 7.52348 9.21529 7.52777 9.42414 7.53152C9.53178 7.53366 9.63781 7.5358 9.74331 7.53794C9.74331 7.53687 9.74224 7.5358 9.74117 7.53473H9.74224ZM4.87648 6.31106L4.54553 6.31963C3.83114 6.31963 3.37702 6.1986 3.2592 6.16272C3.08034 6.12363 2.90415 6.05937 2.73546 5.96779C1.73617 5.42477 1.38487 4.14005 1.95145 3.09792C2.5175 2.05633 3.78615 1.65148 4.78544 2.1945C4.96163 2.29036 5.11746 2.40924 5.25188 2.54526C6.02839 3.25001 6.58105 4.40353 6.87826 5.14309C7.04588 5.55972 7.1321 5.84462 7.1321 5.84462C6.25277 6.15683 5.48912 6.28 4.87648 6.31106ZM8.47412 6.61631C8.47412 6.61631 8.47198 6.6147 8.47144 6.61363C8.47252 6.61363 8.47359 6.6131 8.47519 6.61256C8.47519 6.61363 8.47412 6.6147 8.47412 6.61631Z" fill="#585DCC"/>
<path d="M16.0492 2.71288C15.1634 1.08275 13.2553 0.406917 11.788 1.20431C11.5293 1.34462 11.3018 1.52188 11.1068 1.72698C10.5831 2.21645 10.1348 2.85747 9.76373 3.5167C9.76373 3.5183 9.76212 3.51938 9.76105 3.52098C9.71178 3.59917 9.34709 4.18021 8.85977 4.95779L8.8587 4.95886L8.51007 5.51527V5.51634L8.31889 5.82052L8.12396 6.13219C8.10361 6.16486 8.08326 6.19752 8.06237 6.23019H8.06291C8.04363 6.26125 8.02382 6.29231 8.004 6.32391C7.98472 6.35497 7.96544 6.38656 7.94509 6.41816C7.90654 6.48082 7.86691 6.54347 7.82728 6.60666C7.80586 6.64147 7.78444 6.67575 7.76248 6.71056C7.72285 6.77428 7.68269 6.83855 7.64306 6.90227C7.51989 7.09988 7.39725 7.29642 7.27783 7.48813C7.3678 7.48974 7.4583 7.49188 7.54934 7.49349C7.8337 7.49938 8.12342 7.50527 8.41368 7.51116C8.43777 7.5117 8.46241 7.51223 8.48651 7.51277C8.51061 7.5133 8.53417 7.51384 8.5588 7.51437H8.56202C8.63752 7.51598 8.71357 7.51759 8.78908 7.51919C9.00382 7.52348 9.21589 7.52776 9.42474 7.53151C9.41296 7.51919 9.40118 7.50634 9.3894 7.49403C9.40172 7.50688 9.4135 7.51919 9.42528 7.53151C9.53292 7.53365 9.63895 7.5358 9.74445 7.53794C10.9794 7.56257 12.0011 7.58132 12.2234 7.58132C12.2416 7.58132 12.2566 7.58024 12.2694 7.5781C13.3587 7.61291 14.0463 7.43994 14.223 7.38906C14.4881 7.33551 14.7484 7.2434 14.9958 7.10898C16.4631 6.31159 16.9344 4.34354 16.0486 2.71288H16.0492ZM11.969 7.15183C11.969 7.15183 11.9706 7.14647 11.9712 7.14326C11.9712 7.14647 11.9695 7.14915 11.9685 7.15183H11.969ZM14.2605 6.12844C14.0924 6.22002 13.9162 6.28428 13.7368 6.32337C13.5097 6.39245 12.0418 6.77857 9.86387 6.00527C9.86387 6.00527 10.5306 3.80695 11.7441 2.70592C11.8785 2.56989 12.0343 2.45101 12.2105 2.35515C13.2098 1.81213 14.479 2.21698 15.0451 3.25858C15.6111 4.3007 15.2598 5.58542 14.2605 6.12844Z" fill="#585DCC"/>
<path d="M11.6947 11.3985C11.6546 11.2031 11.4618 10.4067 10.8052 9.32927C10.7254 9.16432 10.2858 8.42959 9.7449 7.53848C9.7449 7.53848 9.74383 7.5358 9.74276 7.53473L9.47768 7.09988L8.72045 5.85961C8.64922 5.7434 8.57907 5.6288 8.50999 5.51634L8.31934 5.82052L8.12441 6.13219C8.10406 6.16486 8.08371 6.19753 8.06283 6.23019H8.06336C8.04408 6.26125 8.02427 6.29231 8.00446 6.32391C7.98518 6.35497 7.9659 6.38657 7.94555 6.41816C7.90699 6.48082 7.86736 6.54348 7.82773 6.60667C7.80631 6.64148 7.78489 6.67575 7.76293 6.71056C7.72331 6.77429 7.68314 6.83855 7.64351 6.90228C7.52034 7.09988 7.39771 7.29642 7.27829 7.48814C7.10049 7.77304 6.92966 8.04829 6.77168 8.30267C6.31595 9.03741 5.97215 9.59917 5.90146 9.73198C5.61656 10.2295 5.37718 10.7521 5.2342 11.2732C5.14316 11.541 5.09228 11.8248 5.08853 12.1193C5.06497 13.7891 6.55051 15.1638 8.40556 15.1895C10.2611 15.2157 11.7842 13.8828 11.8077 12.2131C11.8115 11.9314 11.7724 11.6583 11.6958 11.3985H11.6947ZM10.5851 9.61256C10.5851 9.61256 10.5894 9.60881 10.591 9.6072C10.5894 9.60881 10.5878 9.61041 10.5862 9.61256C10.5857 9.61256 10.5857 9.61309 10.5851 9.61309V9.61256ZM6.41127 9.45136L6.40538 9.44601C6.40753 9.44762 6.40967 9.44976 6.41181 9.45136H6.41127ZM8.42056 14.0462C7.23491 14.0295 6.2865 13.0945 6.30256 11.9576C6.30524 11.7573 6.33791 11.564 6.39628 11.3814C6.54516 10.8052 6.85576 10.2257 7.191 9.72127C7.191 9.72127 7.1926 9.71859 7.19582 9.71377C7.19689 9.71216 7.19796 9.71056 7.19903 9.70842C7.20171 9.70467 7.20438 9.69985 7.20813 9.69449C7.42609 9.3705 7.65155 9.07918 7.85022 8.8398C8.186 8.43548 8.44251 8.18271 8.44251 8.18271C10.1396 9.75072 10.4807 11.2298 10.5252 11.4628C10.5739 11.6395 10.5991 11.8259 10.5964 12.0176C10.5803 13.1545 9.6062 14.0628 8.42056 14.0462Z" fill="#585DCC"/>
</g>
<defs>
<clipPath id="clip0_8062_213397">
<rect width="16" height="16" fill="white" transform="translate(0.5)"/>
</clipPath>
</defs>
</svg>
