<svg width="180" height="51" viewBox="0 0 180 51" fill="none" xmlns="http://www.w3.org/2000/svg">
<g clip-path="url(#clip0_6545_181760)">
<path d="M171.291 31.9251C168.89 31.9251 166.912 31.1081 165.356 29.474C163.801 27.8399 163.023 25.7752 163.023 23.2799C163.023 20.8066 163.778 18.753 165.29 17.1189C166.801 15.4627 168.735 14.6346 171.091 14.6346C173.514 14.6346 175.436 15.4185 176.859 16.9864C178.303 18.5322 179.026 20.7073 179.026 23.5117L178.992 23.843H166.157C166.201 25.4329 166.734 26.7137 167.757 27.6853C168.779 28.6569 170.002 29.1427 171.424 29.1427C173.38 29.1427 174.914 28.1711 176.025 26.2279L178.759 27.5528C178.026 28.9219 177.003 29.9929 175.692 30.7658C174.403 31.5387 172.936 31.9251 171.291 31.9251ZM166.39 21.3256H175.758C175.67 20.1994 175.203 19.2719 174.358 18.5432C173.536 17.7924 172.424 17.417 171.024 17.417C169.868 17.417 168.868 17.7703 168.024 18.4769C167.201 19.1836 166.657 20.1331 166.39 21.3256Z" fill="#585DCC"/>
<path d="M155.587 31.3952H152.52V15.1646H155.454V17.8145H155.587C155.899 16.9533 156.532 16.2246 157.488 15.6283C158.466 15.01 159.422 14.7009 160.355 14.7009C161.244 14.7009 162 14.8334 162.622 15.0983L161.689 18.0463C161.311 17.8918 160.711 17.8145 159.888 17.8145C158.733 17.8145 157.721 18.2782 156.854 19.2057C156.01 20.1331 155.587 21.2152 155.587 22.4518V31.3952Z" fill="#585DCC"/>
<path d="M132.923 23.2799C132.923 20.7846 133.712 18.7199 135.29 17.0858C136.89 15.4517 138.902 14.6346 141.324 14.6346C143.747 14.6346 145.748 15.4517 147.326 17.0858C148.926 18.7199 149.726 20.7846 149.726 23.2799C149.726 25.7973 148.926 27.862 147.326 29.474C145.748 31.1081 143.747 31.9251 141.324 31.9251C138.902 31.9251 136.89 31.1081 135.29 29.474C133.712 27.8399 132.923 25.7752 132.923 23.2799ZM135.99 23.2799C135.99 25.0244 136.501 26.4377 137.524 27.5197C138.546 28.6017 139.813 29.1427 141.324 29.1427C142.836 29.1427 144.103 28.6017 145.125 27.5197C146.148 26.4377 146.659 25.0244 146.659 23.2799C146.659 21.5574 146.148 20.1552 145.125 19.0732C144.081 17.9691 142.814 17.417 141.324 17.417C139.835 17.417 138.568 17.9691 137.524 19.0732C136.501 20.1552 135.99 21.5574 135.99 23.2799Z" fill="#585DCC"/>
<path d="M128.367 31.6601C127.034 31.6601 125.922 31.2516 125.033 30.4346C124.167 29.6175 123.722 28.4803 123.7 27.0228V17.947H120.833V15.1646H123.7V10.196H126.767V15.1646H130.768V17.947H126.767V26.0291C126.767 27.1112 126.978 27.8509 127.401 28.2484C127.823 28.6238 128.301 28.8115 128.834 28.8115C129.079 28.8115 129.312 28.7894 129.534 28.7453C129.779 28.679 130.001 28.6017 130.201 28.5134L131.168 31.2295C130.368 31.5166 129.434 31.6601 128.367 31.6601Z" fill="#585DCC"/>
<path d="M119.059 26.8903C119.059 28.3036 118.437 29.4961 117.192 30.4677C115.947 31.4393 114.38 31.9251 112.491 31.9251C110.846 31.9251 109.402 31.5056 108.157 30.6664C106.912 29.8052 106.023 28.679 105.49 27.2878L108.224 26.1285C108.624 27.1001 109.201 27.862 109.957 28.414C110.735 28.944 111.58 29.209 112.491 29.209C113.469 29.209 114.28 28.9992 114.925 28.5796C115.592 28.1601 115.925 27.6632 115.925 27.0891C115.925 26.0512 115.125 25.2894 113.525 24.8036L110.724 24.108C107.546 23.313 105.956 21.7893 105.956 19.5369C105.956 18.0574 106.557 16.876 107.757 15.9927C108.979 15.0873 110.535 14.6346 112.424 14.6346C113.869 14.6346 115.169 14.9769 116.325 15.6614C117.503 16.346 118.326 17.2624 118.792 18.4107L116.058 19.5369C115.747 18.8524 115.236 18.3224 114.525 17.947C113.836 17.5495 113.058 17.3507 112.191 17.3507C111.391 17.3507 110.668 17.5495 110.024 17.947C109.402 18.3445 109.09 18.8303 109.09 19.4044C109.09 20.3319 109.968 20.9943 111.724 21.3918L114.191 22.0212C117.436 22.8161 119.059 24.4392 119.059 26.8903Z" fill="#585DCC"/>
<path d="M102.742 29.3415C102.742 29.9598 102.519 30.4898 102.075 30.9314C101.653 31.3731 101.119 31.5939 100.475 31.5939C99.8523 31.5939 99.3189 31.3731 98.8743 30.9314C98.4298 30.4898 98.2075 29.9598 98.2075 29.3415C98.2075 28.7011 98.4298 28.1711 98.8743 27.7516C99.3189 27.3099 99.8523 27.0891 100.475 27.0891C101.119 27.0891 101.653 27.3099 102.075 27.7516C102.519 28.1711 102.742 28.7011 102.742 29.3415Z" fill="#585DCC"/>
<path d="M90.7903 10.5935V31.3951H87.723V10.5935H81.055V7.67865H97.4583V10.5935H90.7903Z" fill="#585DCC"/>
<path d="M62.1749 31.3951H59.1077V7.67865H62.8418L74.4441 26.1285H74.5774L74.4441 21.5574V7.67865H77.5114V31.3951H74.3107L62.1749 12.051H62.0416L62.1749 16.622V31.3951Z" fill="#585DCC"/>
<path d="M53.9624 31.3951H50.8951V7.67865H53.9624V31.3951Z" fill="#585DCC"/>
<path d="M176.885 40.6084C176.498 40.6084 176.132 40.5463 175.789 40.4221C175.451 40.2918 175.158 40.1117 174.908 39.882L175.329 39.435C175.548 39.6337 175.789 39.7889 176.051 39.9006C176.314 40.0062 176.582 40.059 176.857 40.059C177.232 40.059 177.538 39.9813 177.776 39.8261C178.013 39.6709 178.132 39.4692 178.132 39.2208C178.132 39.016 178.06 38.8576 177.916 38.7459C177.779 38.6279 177.56 38.5472 177.26 38.5038L176.445 38.392C175.976 38.3237 175.626 38.184 175.395 37.973C175.17 37.7619 175.058 37.4763 175.058 37.1162C175.058 36.8555 175.133 36.6227 175.283 36.4178C175.433 36.2129 175.639 36.0515 175.901 35.9335C176.17 35.8156 176.476 35.7566 176.82 35.7566C177.163 35.7566 177.485 35.8063 177.785 35.9056C178.085 36.0049 178.379 36.1601 178.666 36.3712L178.301 36.8368C178.038 36.6568 177.782 36.5264 177.532 36.4457C177.288 36.3588 177.038 36.3153 176.782 36.3153C176.457 36.3153 176.195 36.3867 175.995 36.5295C175.795 36.6723 175.695 36.8586 175.695 37.0883C175.695 37.2994 175.764 37.4608 175.901 37.5725C176.039 37.6781 176.26 37.7526 176.567 37.796L177.382 37.9078C177.851 37.9699 178.201 38.1064 178.432 38.3175C178.669 38.5286 178.788 38.8173 178.788 39.1836C178.788 39.4505 178.704 39.6927 178.535 39.91C178.366 40.1272 178.138 40.298 177.851 40.4221C177.57 40.5463 177.248 40.6084 176.885 40.6084Z" fill="#585DCC"/>
<path d="M172.252 40.5991C171.802 40.5991 171.393 40.4935 171.024 40.2824C170.662 40.0652 170.371 39.7734 170.152 39.4071C169.94 39.0408 169.834 38.631 169.834 38.1778C169.834 37.7308 169.937 37.3273 170.143 36.9672C170.349 36.6009 170.627 36.3122 170.977 36.1011C171.327 35.8839 171.718 35.7752 172.149 35.7752C172.567 35.7752 172.942 35.8839 173.274 36.1011C173.611 36.3122 173.877 36.6009 174.07 36.9672C174.27 37.3273 174.37 37.7308 174.37 38.1778V38.392H170.518C170.555 38.6962 170.652 38.9694 170.808 39.2115C170.971 39.4536 171.18 39.6461 171.436 39.7889C171.693 39.9255 171.974 39.9938 172.28 39.9938C172.524 39.9938 172.761 39.9565 172.992 39.882C173.224 39.8075 173.417 39.702 173.574 39.5654L174.005 40.0217C173.742 40.2142 173.467 40.36 173.18 40.4594C172.899 40.5525 172.589 40.5991 172.252 40.5991ZM170.537 37.8426H173.677C173.639 37.5632 173.545 37.3149 173.395 37.0976C173.252 36.8741 173.07 36.7002 172.852 36.5761C172.633 36.4457 172.392 36.3805 172.13 36.3805C171.861 36.3805 171.614 36.4426 171.39 36.5668C171.165 36.6909 170.977 36.8648 170.827 37.0883C170.677 37.3056 170.58 37.557 170.537 37.8426Z" fill="#585DCC"/>
<path d="M167.138 40.5153V35.8497H167.832V36.5109C167.976 36.2688 168.157 36.0825 168.375 35.9522C168.6 35.8156 168.857 35.7473 169.144 35.7473C169.307 35.7473 169.453 35.769 169.585 35.8125V36.4457C169.503 36.4147 169.422 36.3929 169.341 36.3805C169.26 36.3681 169.178 36.3619 169.097 36.3619C168.81 36.3619 168.557 36.4457 168.338 36.6133C168.126 36.7748 167.957 37.0107 167.832 37.3211V40.5153H167.138Z" fill="#585DCC"/>
<path d="M163.775 40.6084C163.332 40.6084 162.925 40.5029 162.557 40.2918C162.194 40.0745 161.907 39.7827 161.694 39.4164C161.482 39.0501 161.376 38.6404 161.376 38.1872C161.376 37.734 161.482 37.3242 161.694 36.9579C161.907 36.5916 162.194 36.3029 162.557 36.0919C162.925 35.8746 163.332 35.7659 163.775 35.7659C164.225 35.7659 164.631 35.8746 164.994 36.0919C165.356 36.3029 165.644 36.5916 165.856 36.9579C166.069 37.3242 166.175 37.734 166.175 38.1872C166.175 38.6404 166.069 39.0501 165.856 39.4164C165.644 39.7827 165.356 40.0745 164.994 40.2918C164.631 40.5029 164.225 40.6084 163.775 40.6084ZM163.775 39.9938C164.094 39.9938 164.381 39.9131 164.638 39.7517C164.9 39.5903 165.106 39.373 165.256 39.0998C165.412 38.8266 165.491 38.5224 165.491 38.1872C165.491 37.8457 165.412 37.5415 165.256 37.2746C165.106 37.0014 164.9 36.7841 164.638 36.6227C164.381 36.4613 164.094 36.3806 163.775 36.3806C163.456 36.3806 163.166 36.4613 162.903 36.6227C162.647 36.7841 162.441 37.0014 162.285 37.2746C162.135 37.5415 162.06 37.8457 162.06 38.1872C162.06 38.5224 162.135 38.8266 162.285 39.0998C162.441 39.373 162.647 39.5903 162.903 39.7517C163.166 39.9131 163.456 39.9938 163.775 39.9938Z" fill="#585DCC"/>
<path d="M158.209 40.5898C157.771 40.5898 157.371 40.4842 157.009 40.2731C156.653 40.0559 156.369 39.7672 156.156 39.4071C155.95 39.0408 155.847 38.631 155.847 38.1778C155.847 37.7246 155.95 37.318 156.156 36.9579C156.369 36.5978 156.653 36.3122 157.009 36.1012C157.371 35.8839 157.775 35.7752 158.218 35.7752C158.493 35.7752 158.759 35.8218 159.015 35.9149C159.271 36.0018 159.505 36.1322 159.718 36.306V33.9965L160.412 33.8382V40.5153H159.727V40.0217C159.315 40.4004 158.809 40.5898 158.209 40.5898ZM158.274 39.9845C158.568 39.9845 158.84 39.9286 159.09 39.8168C159.346 39.6989 159.555 39.5375 159.718 39.3326V37.0231C159.555 36.8244 159.346 36.6692 159.09 36.5575C158.84 36.4395 158.568 36.3805 158.274 36.3805C157.949 36.3805 157.653 36.4581 157.384 36.6133C157.122 36.7686 156.912 36.9827 156.756 37.2559C156.606 37.5229 156.531 37.8271 156.531 38.1685C156.531 38.51 156.606 38.8173 156.756 39.0905C156.912 39.3636 157.122 39.5809 157.384 39.7423C157.653 39.9038 157.949 39.9845 158.274 39.9845Z" fill="#585DCC"/>
<path d="M152.974 40.5991C152.524 40.5991 152.115 40.4935 151.746 40.2824C151.384 40.0652 151.093 39.7734 150.875 39.4071C150.662 39.0408 150.556 38.631 150.556 38.1778C150.556 37.7308 150.659 37.3273 150.865 36.9672C151.071 36.6009 151.35 36.3122 151.7 36.1011C152.049 35.8839 152.44 35.7752 152.871 35.7752C153.29 35.7752 153.665 35.8839 153.996 36.1011C154.333 36.3122 154.599 36.6009 154.793 36.9672C154.993 37.3273 155.093 37.7308 155.093 38.1778V38.392H151.24C151.278 38.6962 151.375 38.9694 151.531 39.2115C151.693 39.4536 151.903 39.6461 152.159 39.7889C152.415 39.9255 152.696 39.9938 153.002 39.9938C153.246 39.9938 153.484 39.9565 153.715 39.882C153.946 39.8075 154.14 39.702 154.296 39.5654L154.727 40.0217C154.465 40.2142 154.19 40.36 153.902 40.4594C153.621 40.5525 153.312 40.5991 152.974 40.5991ZM151.259 37.8426H154.399C154.362 37.5632 154.268 37.3149 154.118 37.0976C153.974 36.8741 153.793 36.7002 153.574 36.5761C153.355 36.4457 153.115 36.3805 152.852 36.3805C152.584 36.3805 152.337 36.4426 152.112 36.5668C151.887 36.6909 151.7 36.8648 151.55 37.0883C151.4 37.3056 151.303 37.557 151.259 37.8426Z" fill="#585DCC"/>
<path d="M147.389 40.5898C146.952 40.5898 146.552 40.4842 146.189 40.2731C145.833 40.0559 145.549 39.7672 145.336 39.4071C145.13 39.0408 145.027 38.631 145.027 38.1778C145.027 37.7246 145.13 37.318 145.336 36.9579C145.549 36.5978 145.833 36.3122 146.189 36.1012C146.552 35.8839 146.955 35.7752 147.399 35.7752C147.674 35.7752 147.939 35.8218 148.195 35.9149C148.452 36.0018 148.686 36.1322 148.898 36.306V33.9965L149.592 33.8382V40.5153H148.908V40.0217C148.495 40.4004 147.989 40.5898 147.389 40.5898ZM147.455 39.9845C147.749 39.9845 148.02 39.9286 148.27 39.8168C148.527 39.6989 148.736 39.5375 148.898 39.3326V37.0231C148.736 36.8244 148.527 36.6692 148.27 36.5575C148.02 36.4395 147.749 36.3805 147.455 36.3805C147.13 36.3805 146.833 36.4581 146.564 36.6133C146.302 36.7686 146.093 36.9827 145.936 37.2559C145.786 37.5229 145.711 37.8271 145.711 38.1685C145.711 38.51 145.786 38.8173 145.936 39.0905C146.093 39.3636 146.302 39.5809 146.564 39.7423C146.833 39.9038 147.13 39.9845 147.455 39.9845Z" fill="#585DCC"/>
<path d="M140.098 40.5153V35.8497H140.792V36.3992C141.161 35.9708 141.654 35.7566 142.273 35.7566C142.629 35.7566 142.942 35.8342 143.21 35.9894C143.485 36.1384 143.698 36.3495 143.848 36.6227C144.004 36.8896 144.082 37.2031 144.082 37.5632V40.5153H143.398V37.7029C143.398 37.2869 143.279 36.961 143.042 36.7251C142.81 36.483 142.492 36.3619 142.086 36.3619C141.804 36.3619 141.554 36.424 141.336 36.5482C141.117 36.6723 140.936 36.8493 140.792 37.079V40.5153H140.098Z" fill="#585DCC"/>
<path d="M137.01 40.5991C136.56 40.5991 136.151 40.4935 135.782 40.2824C135.42 40.0652 135.129 39.7734 134.911 39.4071C134.698 39.0408 134.592 38.631 134.592 38.1778C134.592 37.7308 134.695 37.3273 134.901 36.9672C135.108 36.6009 135.386 36.3122 135.736 36.1011C136.086 35.8839 136.476 35.7752 136.907 35.7752C137.326 35.7752 137.701 35.8839 138.032 36.1011C138.369 36.3122 138.635 36.6009 138.829 36.9672C139.029 37.3273 139.129 37.7308 139.129 38.1778V38.392H135.276C135.314 38.6962 135.411 38.9694 135.567 39.2115C135.729 39.4536 135.939 39.6461 136.195 39.7889C136.451 39.9255 136.732 39.9938 137.038 39.9938C137.282 39.9938 137.52 39.9565 137.751 39.882C137.982 39.8075 138.176 39.702 138.332 39.5654L138.763 40.0217C138.501 40.2142 138.226 40.36 137.938 40.4594C137.657 40.5525 137.348 40.5991 137.01 40.5991ZM135.295 37.8426H138.435C138.398 37.5632 138.304 37.3149 138.154 37.0976C138.01 36.8741 137.829 36.7002 137.61 36.5761C137.392 36.4457 137.151 36.3805 136.889 36.3805C136.62 36.3805 136.373 36.4426 136.148 36.5668C135.923 36.6909 135.736 36.8648 135.586 37.0883C135.436 37.3056 135.339 37.557 135.295 37.8426Z" fill="#585DCC"/>
<path d="M131.897 40.5153V35.8497H132.59V36.5109C132.734 36.2688 132.915 36.0825 133.134 35.9522C133.359 35.8156 133.615 35.7473 133.903 35.7473C134.065 35.7473 134.212 35.769 134.343 35.8125V36.4457C134.262 36.4147 134.181 36.3929 134.099 36.3805C134.018 36.3681 133.937 36.3619 133.856 36.3619C133.568 36.3619 133.315 36.4457 133.097 36.6133C132.884 36.7748 132.715 37.0107 132.59 37.3211V40.5153H131.897Z" fill="#585DCC"/>
<path d="M126.368 42.415V35.8497H127.052V36.3526C127.458 35.9677 127.965 35.7752 128.571 35.7752C129.014 35.7752 129.414 35.8839 129.77 36.1011C130.127 36.3122 130.408 36.5978 130.614 36.9579C130.827 37.318 130.933 37.7246 130.933 38.1778C130.933 38.631 130.827 39.0408 130.614 39.4071C130.408 39.7672 130.127 40.0558 129.77 40.2731C129.414 40.4842 129.011 40.5898 128.561 40.5898C128.286 40.5898 128.021 40.5432 127.765 40.4501C127.508 40.3569 127.274 40.2235 127.062 40.0496V42.415H126.368ZM128.505 39.9844C128.836 39.9844 129.133 39.9068 129.396 39.7516C129.658 39.5902 129.864 39.376 130.014 39.1091C130.17 38.8359 130.248 38.5286 130.248 38.1871C130.248 37.8457 130.17 37.5384 130.014 37.2652C129.864 36.992 129.658 36.7779 129.396 36.6226C129.133 36.4612 128.836 36.3805 128.505 36.3805C128.211 36.3805 127.936 36.4395 127.68 36.5575C127.43 36.6692 127.224 36.8275 127.062 37.0324V39.3419C127.224 39.5406 127.433 39.6989 127.69 39.8168C127.946 39.9286 128.218 39.9844 128.505 39.9844Z" fill="#585DCC"/>
<path d="M118.313 40.5153V35.8497H119.006V36.3619C119.363 35.9584 119.822 35.7566 120.384 35.7566C120.715 35.7566 121.009 35.8342 121.265 35.9894C121.522 36.1384 121.722 36.3433 121.865 36.604C122.059 36.3184 122.29 36.1074 122.559 35.9708C122.828 35.828 123.134 35.7566 123.477 35.7566C123.821 35.7566 124.121 35.8342 124.377 35.9894C124.633 36.1384 124.833 36.3495 124.977 36.6227C125.127 36.8896 125.202 37.2031 125.202 37.5632V40.5153H124.518V37.7029C124.518 37.2869 124.409 36.961 124.19 36.7251C123.971 36.483 123.674 36.3619 123.299 36.3619C123.043 36.3619 122.809 36.4271 122.596 36.5575C122.384 36.6816 122.203 36.871 122.053 37.1255C122.065 37.1938 122.075 37.2652 122.081 37.3397C122.093 37.408 122.1 37.4825 122.1 37.5632V40.5153H121.415V37.7029C121.415 37.2869 121.306 36.961 121.087 36.7251C120.869 36.483 120.575 36.3619 120.206 36.3619C119.956 36.3619 119.728 36.4209 119.522 36.5388C119.322 36.6506 119.15 36.8182 119.006 37.0417V40.5153H118.313Z" fill="#585DCC"/>
<path d="M115.047 40.5708C114.589 40.5708 114.173 40.4655 113.798 40.2549C113.429 40.038 113.134 39.7469 112.911 39.3814C112.695 39.0159 112.587 38.607 112.587 38.1548C112.587 37.7087 112.692 37.3061 112.902 36.9468C113.111 36.5813 113.394 36.2932 113.75 36.0826C114.106 35.8657 114.503 35.7573 114.942 35.7573C115.368 35.7573 115.749 35.8657 116.086 36.0826C116.429 36.2932 116.699 36.5813 116.896 36.9468C117.1 37.3061 117.201 37.7087 117.201 38.1548V38.3685H113.283C113.321 38.6721 113.42 38.9446 113.579 39.1862C113.744 39.4278 113.957 39.6199 114.217 39.7624C114.478 39.8987 114.764 39.9668 115.075 39.9668C115.323 39.9668 115.565 39.9296 115.8 39.8553C116.035 39.7809 116.232 39.6756 116.391 39.5393L116.83 39.9947C116.563 40.1867 116.283 40.3323 115.991 40.4314C115.705 40.5243 115.39 40.5708 115.047 40.5708ZM113.302 37.8202H116.496C116.458 37.5415 116.362 37.2937 116.21 37.0768C116.064 36.8538 115.879 36.6804 115.657 36.5565C115.434 36.4264 115.19 36.3613 114.923 36.3613C114.65 36.3613 114.398 36.4233 114.17 36.5472C113.941 36.6711 113.75 36.8445 113.598 37.0676C113.445 37.2844 113.347 37.5353 113.302 37.8202Z" fill="#585DCC"/>
<path d="M107.16 40.6084C106.716 40.6084 106.31 40.5029 105.941 40.2918C105.579 40.0745 105.292 39.7827 105.079 39.4164C104.867 39.0501 104.76 38.6404 104.76 38.1872C104.76 37.734 104.867 37.3242 105.079 36.9579C105.292 36.5916 105.579 36.3029 105.941 36.0919C106.31 35.8746 106.716 35.7659 107.16 35.7659C107.61 35.7659 108.016 35.8746 108.378 36.0919C108.741 36.3029 109.028 36.5916 109.241 36.9579C109.453 37.3242 109.56 37.734 109.56 38.1872C109.56 38.6404 109.453 39.0501 109.241 39.4164C109.028 39.7827 108.741 40.0745 108.378 40.2918C108.016 40.5029 107.61 40.6084 107.16 40.6084ZM107.16 39.9938C107.479 39.9938 107.766 39.9131 108.022 39.7517C108.285 39.5903 108.491 39.373 108.641 39.0998C108.797 38.8266 108.875 38.5224 108.875 38.1872C108.875 37.8457 108.797 37.5415 108.641 37.2746C108.491 37.0014 108.285 36.7841 108.022 36.6227C107.766 36.4613 107.479 36.3806 107.16 36.3806C106.841 36.3806 106.551 36.4613 106.288 36.6227C106.032 36.7841 105.826 37.0014 105.67 37.2746C105.52 37.5415 105.445 37.8457 105.445 38.1872C105.445 38.5224 105.52 38.8266 105.67 39.0998C105.826 39.373 106.032 39.5903 106.288 39.7517C106.551 39.9131 106.841 39.9938 107.16 39.9938Z" fill="#585DCC"/>
<path d="M101.594 40.5898C101.156 40.5898 100.756 40.4842 100.394 40.2731C100.038 40.0559 99.7532 39.7672 99.5408 39.4071C99.3346 39.0408 99.2314 38.631 99.2314 38.1778C99.2314 37.7246 99.3346 37.318 99.5408 36.9579C99.7532 36.5978 100.038 36.3122 100.394 36.1012C100.756 35.8839 101.159 35.7752 101.603 35.7752C101.878 35.7752 102.143 35.8218 102.4 35.9149C102.656 36.0018 102.89 36.1322 103.103 36.306V33.9965L103.796 33.8382V40.5153H103.112V40.0217C102.7 40.4004 102.193 40.5898 101.594 40.5898ZM101.659 39.9845C101.953 39.9845 102.225 39.9286 102.475 39.8168C102.731 39.6989 102.94 39.5375 103.103 39.3326V37.0231C102.94 36.8244 102.731 36.6692 102.475 36.5575C102.225 36.4395 101.953 36.3805 101.659 36.3805C101.334 36.3805 101.037 36.4581 100.769 36.6133C100.506 36.7686 100.297 36.9827 100.141 37.2559C99.9907 37.5229 99.9157 37.8271 99.9157 38.1685C99.9157 38.51 99.9907 38.8173 100.141 39.0905C100.297 39.3636 100.506 39.5809 100.769 39.7423C101.037 39.9038 101.334 39.9845 101.659 39.9845Z" fill="#585DCC"/>
<path d="M94.3028 40.5153V35.8497H94.9964V36.3992C95.3651 35.9708 95.8588 35.7566 96.4774 35.7566C96.8336 35.7566 97.146 35.8342 97.4147 35.9894C97.6897 36.1384 97.9022 36.3495 98.0521 36.6227C98.2084 36.8896 98.2865 37.2031 98.2865 37.5632V40.5153H97.6022V37.7029C97.6022 37.2869 97.4835 36.961 97.246 36.7251C97.0148 36.483 96.6961 36.3619 96.2899 36.3619C96.0087 36.3619 95.7588 36.424 95.5401 36.5482C95.3214 36.6723 95.1401 36.8493 94.9964 37.079V40.5153H94.3028Z" fill="#585DCC"/>
<path d="M90.9507 40.5991C90.607 40.5991 90.3039 40.5401 90.0415 40.4221C89.7853 40.3042 89.5822 40.1397 89.4322 39.9286C89.2885 39.7175 89.2166 39.4723 89.2166 39.1929C89.2166 38.7521 89.3853 38.4044 89.7228 38.1499C90.0602 37.8954 90.5164 37.7681 91.0913 37.7681C91.5974 37.7681 92.0567 37.8736 92.4692 38.0847V37.4701C92.4692 37.0976 92.3629 36.8182 92.1505 36.632C91.938 36.4395 91.6287 36.3433 91.2225 36.3433C90.9913 36.3433 90.757 36.3774 90.5195 36.4457C90.2883 36.5078 90.0321 36.6102 89.7509 36.753L89.4884 36.2222C89.8259 36.0608 90.1383 35.9428 90.4258 35.8683C90.7132 35.7938 91.0007 35.7566 91.2881 35.7566C91.8818 35.7566 92.3379 35.8963 92.6566 36.1757C92.9816 36.455 93.144 36.8555 93.144 37.377V40.5153H92.4692V40.059C92.2567 40.239 92.0224 40.3756 91.7662 40.4687C91.5162 40.5556 91.2444 40.5991 90.9507 40.5991ZM89.8821 39.1743C89.8821 39.435 89.9915 39.6492 90.2102 39.8168C90.4351 39.9782 90.7226 40.059 91.0725 40.059C91.3537 40.059 91.6099 40.0155 91.8411 39.9286C92.0724 39.8417 92.2817 39.7051 92.4692 39.5188V38.6435C92.2754 38.5131 92.0692 38.42 91.8505 38.3641C91.6318 38.302 91.385 38.271 91.11 38.271C90.7351 38.271 90.4351 38.3548 90.2102 38.5224C89.9915 38.6838 89.8821 38.9011 89.8821 39.1743Z" fill="#585DCC"/>
<path d="M86.4672 40.5153V35.8497H87.1609V36.5109C87.3046 36.2688 87.4858 36.0825 87.7045 35.9522C87.9295 35.8156 88.1857 35.7473 88.4731 35.7473C88.6356 35.7473 88.7824 35.769 88.9137 35.8125V36.4457C88.8324 36.4147 88.7512 36.3929 88.67 36.3805C88.5887 36.3681 88.5075 36.3619 88.4262 36.3619C88.1388 36.3619 87.8857 36.4457 87.667 36.6133C87.4545 36.7748 87.2858 37.0107 87.1609 37.3211V40.5153H86.4672Z" fill="#585DCC"/>
<path d="M83.3792 40.5991C82.9293 40.5991 82.52 40.4935 82.1513 40.2824C81.7889 40.0652 81.4983 39.7734 81.2796 39.4071C81.0671 39.0408 80.9609 38.631 80.9609 38.1778C80.9609 37.7308 81.064 37.3273 81.2702 36.9672C81.4764 36.6009 81.7545 36.3122 82.1044 36.1011C82.4544 35.8839 82.8449 35.7752 83.2761 35.7752C83.6948 35.7752 84.0697 35.8839 84.4009 36.1011C84.7383 36.3122 85.0039 36.6009 85.1976 36.9672C85.3976 37.3273 85.4976 37.7308 85.4976 38.1778V38.392H81.6451C81.6826 38.6962 81.7795 38.9694 81.9357 39.2115C82.0982 39.4536 82.3075 39.6461 82.5637 39.7889C82.8199 39.9255 83.1011 39.9938 83.4073 39.9938C83.651 39.9938 83.8885 39.9565 84.1197 39.882C84.3509 39.8075 84.5446 39.702 84.7008 39.5654L85.132 40.0217C84.8696 40.2142 84.5946 40.36 84.3072 40.4594C84.026 40.5525 83.7166 40.5991 83.3792 40.5991ZM81.6639 37.8426H84.8039C84.7664 37.5632 84.6727 37.3149 84.5227 37.0976C84.379 36.8741 84.1978 36.7002 83.9791 36.5761C83.7604 36.4457 83.5198 36.3805 83.2573 36.3805C82.9886 36.3805 82.7418 36.4426 82.5168 36.5668C82.2919 36.6909 82.1044 36.8648 81.9545 37.0883C81.8045 37.3056 81.7076 37.557 81.6639 37.8426Z" fill="#585DCC"/>
<path d="M77.7941 40.5898C77.3567 40.5898 76.9567 40.4842 76.5943 40.2731C76.2381 40.0559 75.9538 39.7672 75.7413 39.4071C75.5351 39.0408 75.432 38.631 75.432 38.1778C75.432 37.7246 75.5351 37.318 75.7413 36.9579C75.9538 36.5978 76.2381 36.3122 76.5943 36.1012C76.9567 35.8839 77.3598 35.7752 77.8035 35.7752C78.0784 35.7752 78.344 35.8218 78.6002 35.9149C78.8564 36.0018 79.0907 36.1322 79.3032 36.306V33.9965L79.9968 33.8382V40.5153H79.3126V40.0217C78.9001 40.4004 78.394 40.5898 77.7941 40.5898ZM77.8597 39.9845C78.1534 39.9845 78.4252 39.9286 78.6752 39.8168C78.9314 39.6989 79.1407 39.5375 79.3032 39.3326V37.0231C79.1407 36.8244 78.9314 36.6692 78.6752 36.5575C78.4252 36.4395 78.1534 36.3805 77.8597 36.3805C77.5348 36.3805 77.2379 36.4581 76.9692 36.6133C76.7068 36.7686 76.4974 36.9827 76.3412 37.2559C76.1912 37.5229 76.1163 37.8271 76.1163 38.1685C76.1163 38.51 76.1912 38.8173 76.3412 39.0905C76.4974 39.3636 76.7068 39.5809 76.9692 39.7423C77.2379 39.9038 77.5348 39.9845 77.8597 39.9845Z" fill="#585DCC"/>
<path d="M72.2846 40.6084C71.8409 40.6084 71.4347 40.5029 71.066 40.2918C70.7036 40.0745 70.4162 39.7827 70.2037 39.4164C69.9912 39.0501 69.885 38.6404 69.885 38.1872C69.885 37.734 69.9912 37.3242 70.2037 36.9579C70.4162 36.5916 70.7036 36.3029 71.066 36.0919C71.4347 35.8746 71.8409 35.7659 72.2846 35.7659C72.7345 35.7659 73.1407 35.8746 73.5031 36.0919C73.8655 36.3029 74.153 36.5916 74.3655 36.9579C74.5779 37.3242 74.6842 37.734 74.6842 38.1872C74.6842 38.6404 74.5779 39.0501 74.3655 39.4164C74.153 39.7827 73.8655 40.0745 73.5031 40.2918C73.1407 40.5029 72.7345 40.6084 72.2846 40.6084ZM72.2846 39.9938C72.6033 39.9938 72.8907 39.9131 73.1469 39.7517C73.4094 39.5903 73.6156 39.373 73.7656 39.0998C73.9218 38.8266 73.9999 38.5224 73.9999 38.1872C73.9999 37.8457 73.9218 37.5415 73.7656 37.2746C73.6156 37.0014 73.4094 36.7841 73.1469 36.6227C72.8907 36.4613 72.6033 36.3806 72.2846 36.3806C71.9659 36.3806 71.6753 36.4613 71.4129 36.6227C71.1567 36.7841 70.9504 37.0014 70.7942 37.2746C70.6442 37.5415 70.5693 37.8457 70.5693 38.1872C70.5693 38.5224 70.6442 38.8266 70.7942 39.0998C70.9504 39.373 71.1567 39.5903 71.4129 39.7517C71.6753 39.9131 71.9659 39.9938 72.2846 39.9938Z" fill="#585DCC"/>
<path d="M64.5717 42.415V35.8497H65.256V36.3526C65.6621 35.9677 66.1683 35.7752 66.7744 35.7752C67.2181 35.7752 67.618 35.8839 67.9742 36.1011C68.3304 36.3122 68.6116 36.5978 68.8178 36.9579C69.0303 37.318 69.1365 37.7246 69.1365 38.1778C69.1365 38.631 69.0303 39.0408 68.8178 39.4071C68.6116 39.7672 68.3304 40.0558 67.9742 40.2731C67.618 40.4842 67.215 40.5898 66.7651 40.5898C66.4901 40.5898 66.2245 40.5432 65.9683 40.4501C65.7121 40.3569 65.4778 40.2235 65.2653 40.0496V42.415H64.5717ZM66.7088 39.9844C67.04 39.9844 67.3368 39.9068 67.5993 39.7516C67.8618 39.5902 68.068 39.376 68.2179 39.1091C68.3742 38.8359 68.4523 38.5286 68.4523 38.1871C68.4523 37.8457 68.3742 37.5384 68.2179 37.2652C68.068 36.992 67.8618 36.7779 67.5993 36.6226C67.3368 36.4612 67.04 36.3805 66.7088 36.3805C66.4151 36.3805 66.1402 36.4395 65.884 36.5575C65.634 36.6692 65.4278 36.8275 65.2653 37.0324V39.3419C65.4278 39.5406 65.6371 39.6989 65.8934 39.8168C66.1496 39.9286 66.4214 39.9844 66.7088 39.9844Z" fill="#585DCC"/>
<path d="M56.5165 40.5153V35.8497H57.2101V36.3619C57.5663 35.9584 58.0256 35.7566 58.588 35.7566C58.9192 35.7566 59.2129 35.8342 59.4691 35.9894C59.7253 36.1384 59.9252 36.3433 60.069 36.604C60.2627 36.3184 60.4939 36.1074 60.7626 35.9708C61.0313 35.828 61.3375 35.7566 61.6812 35.7566C62.0249 35.7566 62.3248 35.8342 62.581 35.9894C62.8372 36.1384 63.0372 36.3495 63.1809 36.6227C63.3309 36.8896 63.4059 37.2031 63.4059 37.5632V40.5153H62.7216V37.7029C62.7216 37.2869 62.6123 36.961 62.3936 36.7251C62.1748 36.483 61.878 36.3619 61.5031 36.3619C61.2469 36.3619 61.0126 36.4271 60.8001 36.5575C60.5876 36.6816 60.4064 36.871 60.2564 37.1255C60.2689 37.1938 60.2783 37.2652 60.2846 37.3397C60.2971 37.408 60.3033 37.4825 60.3033 37.5632V40.5153H59.619V37.7029C59.619 37.2869 59.5097 36.961 59.291 36.7251C59.0723 36.483 58.7786 36.3619 58.4099 36.3619C58.1599 36.3619 57.9319 36.4209 57.7256 36.5388C57.5257 36.6506 57.3538 36.8182 57.2101 37.0417V40.5153H56.5165Z" fill="#585DCC"/>
<path d="M50.8718 40.5153V33.9965H55.5679V34.6298H51.5936V36.9113H54.19V37.5353H51.5936V39.882H55.6054V40.5153H50.8718Z" fill="#585DCC"/>
</g>
<g clip-path="url(#clip1_6545_181760)">
<path d="M22.7603 24.5089L22.1075 23.445L20.2427 20.4105C20.0673 20.1262 19.8945 19.8458 19.7244 19.5706C18.738 17.9761 17.8636 16.565 17.34 15.7212C16.3008 13.6327 14.9438 11.459 13.2716 9.90641C12.7916 9.40459 12.2311 8.9709 11.5941 8.62762C7.98062 6.6767 3.28178 8.3302 1.1005 12.3185C-1.08077 16.3082 0.0797613 21.1232 3.69324 23.0742C4.30252 23.403 4.94345 23.6284 5.59625 23.7594C5.98661 23.8708 7.38189 24.2219 9.59085 24.2324V24.2455C9.59085 24.2455 12.843 24.315 16.6833 24.3936C16.6859 24.3936 16.6886 24.3936 16.6899 24.3949C16.9114 24.3988 17.1343 24.4041 17.3585 24.408C18.0588 24.4224 18.7723 24.4368 19.487 24.4512C19.5464 24.4525 19.607 24.4538 19.6664 24.4552C19.7257 24.4565 19.7838 24.4578 19.8444 24.4591H19.8523C20.0383 24.463 20.2256 24.4669 20.4115 24.4709C20.9403 24.4814 21.4626 24.4918 21.9769 24.501C22.242 24.5063 22.5031 24.5115 22.7629 24.5167C22.7629 24.5141 22.7603 24.5115 22.7576 24.5089H22.7603ZM10.7778 21.515L9.96275 21.536C8.20349 21.536 7.08516 21.2399 6.79503 21.1521C6.35455 21.0564 5.92067 20.8992 5.50525 20.6752C3.04439 19.3466 2.17927 16.2034 3.57455 13.6537C4.96851 11.1053 8.09271 10.1147 10.5536 11.4433C10.9875 11.6778 11.3712 11.9687 11.7022 12.3015C13.6145 14.0258 14.9755 16.848 15.7074 18.6574C16.1202 19.6768 16.3325 20.3738 16.3325 20.3738C14.167 21.1377 12.2865 21.439 10.7778 21.515V21.515ZM19.6374 22.2618C19.6374 22.2618 19.6321 22.2579 19.6308 22.2553C19.6334 22.2553 19.6361 22.254 19.64 22.2527C19.64 22.2553 19.6374 22.2579 19.6374 22.2618V22.2618Z" fill="#585DCC"/>
<path d="M38.2916 12.7116C36.1104 8.72327 31.4115 7.06977 27.798 9.02069C27.1611 9.36397 26.6006 9.79765 26.1206 10.2995C24.8308 11.497 23.727 13.0654 22.813 14.6782C22.813 14.6822 22.8091 14.6848 22.8064 14.6887C22.6851 14.88 21.787 16.3016 20.5869 18.2041L20.5843 18.2067L19.7258 19.568V19.5706L19.2549 20.3148L18.7749 21.0774C18.7248 21.1573 18.6747 21.2372 18.6232 21.3172H18.6246C18.5771 21.3932 18.5283 21.4691 18.4795 21.5464C18.432 21.6224 18.3845 21.6997 18.3344 21.777C18.2395 21.9303 18.1419 22.0836 18.0443 22.2382C17.9915 22.3234 17.9388 22.4073 17.8847 22.4924C17.7871 22.6483 17.6882 22.8056 17.5906 22.9615C17.2873 23.445 16.9853 23.9258 16.6912 24.3949C16.9128 24.3988 17.1357 24.4041 17.3598 24.408C18.0601 24.4224 18.7736 24.4368 19.4884 24.4512C19.5477 24.4525 19.6084 24.4538 19.6677 24.4551C19.7271 24.4565 19.7851 24.4578 19.8458 24.4591H19.8537C20.0396 24.463 20.2269 24.4669 20.4128 24.4709C20.9417 24.4814 21.4639 24.4918 21.9782 24.501C21.9492 24.4709 21.9202 24.4394 21.8912 24.4093C21.9215 24.4407 21.9505 24.4709 21.9796 24.501C22.2446 24.5062 22.5058 24.5115 22.7656 24.5167C25.8067 24.577 28.3229 24.6229 28.8702 24.6229C28.9151 24.6229 28.952 24.6202 28.9836 24.615C31.6661 24.7002 33.3594 24.277 33.7946 24.1525C34.4474 24.0215 35.0883 23.7961 35.6976 23.4672C39.3111 21.5163 40.4716 16.7012 38.2903 12.7116H38.2916ZM28.2438 23.5721C28.2438 23.5721 28.2478 23.559 28.2491 23.5511C28.2491 23.559 28.2451 23.5655 28.2425 23.5721H28.2438ZM33.8869 21.0682C33.4728 21.2923 33.0389 21.4495 32.5971 21.5451C32.0379 21.7142 28.4232 22.6588 23.0596 20.7669C23.0596 20.7669 24.7015 15.3884 27.6899 12.6946C28.0209 12.3618 28.4047 12.0709 28.8386 11.8364C31.2994 10.5078 34.4249 11.4983 35.8189 14.0467C37.2129 16.5964 36.3477 19.7396 33.8869 21.0682Z" fill="#585DCC"/>
<path d="M27.5684 33.9621C27.4695 33.4839 26.9947 31.5356 25.3779 28.8994C25.1814 28.4959 24.0987 26.6982 22.7667 24.518C22.7667 24.518 22.7641 24.5115 22.7614 24.5089L22.1086 23.445L20.2439 20.4105C20.0685 20.1262 19.8957 19.8458 19.7256 19.5706L19.2561 20.3148L18.776 21.0774C18.7259 21.1573 18.6758 21.2372 18.6244 21.3171H18.6257C18.5782 21.3931 18.5294 21.4691 18.4806 21.5464C18.4332 21.6224 18.3857 21.6997 18.3356 21.777C18.2406 21.9303 18.143 22.0836 18.0454 22.2382C17.9927 22.3234 17.9399 22.4073 17.8859 22.4924C17.7883 22.6483 17.6894 22.8056 17.5918 22.9615C17.2885 23.445 16.9865 23.9258 16.6924 24.3949C16.2545 25.0919 15.8338 25.7654 15.4448 26.3877C14.3225 28.1854 13.4758 29.5598 13.3018 29.8847C12.6002 31.1019 12.0107 32.3807 11.6586 33.6555C11.4344 34.3107 11.3091 35.0051 11.2998 35.7257C11.2418 39.811 14.9001 43.1743 19.4684 43.2372C24.038 43.3014 27.7886 40.0403 27.8467 35.955C27.8559 35.2658 27.7596 34.5976 27.571 33.9621H27.5684ZM24.8359 29.5925C24.8359 29.5925 24.8464 29.5834 24.8504 29.5794C24.8464 29.5834 24.8425 29.5873 24.8385 29.5925C24.8372 29.5925 24.8372 29.5938 24.8359 29.5938V29.5925ZM14.5572 29.1982L14.5427 29.1851C14.548 29.189 14.5533 29.1942 14.5586 29.1982H14.5572ZM19.5053 40.4399C16.5855 40.3993 14.25 38.1116 14.2895 35.33C14.2961 34.84 14.3766 34.367 14.5203 33.9202C14.8869 32.5104 15.6518 31.0927 16.4774 29.8585C16.4774 29.8585 16.4814 29.852 16.4893 29.8402C16.4919 29.8362 16.4945 29.8323 16.4972 29.8271C16.5038 29.8179 16.5104 29.8061 16.5196 29.793C17.0563 29.0003 17.6116 28.2876 18.1008 27.7019C18.9277 26.7127 19.5594 26.0942 19.5594 26.0942C23.7386 29.9306 24.5787 33.5494 24.6882 34.1194C24.8082 34.5517 24.8702 35.0077 24.8636 35.4768C24.824 38.2584 22.4251 40.4805 19.5053 40.4399V40.4399Z" fill="#585DCC"/>
</g>
<defs>
<clipPath id="clip0_6545_181760">
<rect width="128.154" height="35.7843" fill="white" transform="translate(50.8718 7.67865)"/>
</clipPath>
<clipPath id="clip1_6545_181760">
<rect width="39.4019" height="39.1461" fill="white" transform="translate(0 6.07416)"/>
</clipPath>
</defs>
</svg>
