<svg width="21" height="20" viewBox="0 0 21 20" fill="none" xmlns="http://www.w3.org/2000/svg">
<g clip-path="url(#clip0_1627_2055)">
<path d="M4.66667 9.16667H8C8.91667 9.16667 9.66667 8.41667 9.66667 7.5V4.16667C9.66667 3.25 8.91667 2.5 8 2.5H4.66667C3.75 2.5 3 3.25 3 4.16667V7.5C3 8.41667 3.75 9.16667 4.66667 9.16667ZM4.66667 4.16667H8V7.5H4.66667V4.16667Z" fill="#F2F3FF"/>
<path d="M4.66667 17.5H8C8.91667 17.5 9.66667 16.75 9.66667 15.8333V12.5C9.66667 11.5833 8.91667 10.8333 8 10.8333H4.66667C3.75 10.8333 3 11.5833 3 12.5V15.8333C3 16.75 3.75 17.5 4.66667 17.5ZM4.66667 12.5H8V15.8333H4.66667V12.5Z" fill="#F2F3FF"/>
<path d="M11.3333 4.16667V7.5C11.3333 8.41667 12.0833 9.16667 13 9.16667H16.3333C17.25 9.16667 18 8.41667 18 7.5V4.16667C18 3.25 17.25 2.5 16.3333 2.5H13C12.0833 2.5 11.3333 3.25 11.3333 4.16667ZM16.3333 7.5H13V4.16667H16.3333V7.5Z" fill="#F2F3FF"/>
<path d="M18 17.0833V16.25C18 16.0167 17.8167 15.8333 17.5833 15.8333H16.75C16.5167 15.8333 16.3333 16.0167 16.3333 16.25V17.0833C16.3333 17.3167 16.5167 17.5 16.75 17.5H17.5833C17.8167 17.5 18 17.3167 18 17.0833Z" fill="#F2F3FF"/>
<path d="M11.3333 11.25V12.0833C11.3333 12.3167 11.5167 12.5 11.75 12.5H12.5833C12.8167 12.5 13 12.3167 13 12.0833V11.25C13 11.0167 12.8167 10.8333 12.5833 10.8333H11.75C11.5167 10.8333 11.3333 11.0167 11.3333 11.25Z" fill="#F2F3FF"/>
<path d="M14.25 12.5H13.4167C13.1833 12.5 13 12.6833 13 12.9167V13.75C13 13.9833 13.1833 14.1667 13.4167 14.1667H14.25C14.4833 14.1667 14.6667 13.9833 14.6667 13.75V12.9167C14.6667 12.6833 14.4833 12.5 14.25 12.5Z" fill="#F2F3FF"/>
<path d="M11.3333 14.5833V15.4167C11.3333 15.65 11.5167 15.8333 11.75 15.8333H12.5833C12.8167 15.8333 13 15.65 13 15.4167V14.5833C13 14.35 12.8167 14.1667 12.5833 14.1667H11.75C11.5167 14.1667 11.3333 14.35 11.3333 14.5833Z" fill="#F2F3FF"/>
<path d="M13.4167 17.5H14.25C14.4833 17.5 14.6667 17.3167 14.6667 17.0833V16.25C14.6667 16.0167 14.4833 15.8333 14.25 15.8333H13.4167C13.1833 15.8333 13 16.0167 13 16.25V17.0833C13 17.3167 13.1833 17.5 13.4167 17.5Z" fill="#F2F3FF"/>
<path d="M15.0833 15.8333H15.9167C16.15 15.8333 16.3333 15.65 16.3333 15.4167V14.5833C16.3333 14.35 16.15 14.1667 15.9167 14.1667H15.0833C14.85 14.1667 14.6667 14.35 14.6667 14.5833V15.4167C14.6667 15.65 14.85 15.8333 15.0833 15.8333Z" fill="#F2F3FF"/>
<path d="M15.9167 10.8333H15.0833C14.85 10.8333 14.6667 11.0167 14.6667 11.25V12.0833C14.6667 12.3167 14.85 12.5 15.0833 12.5H15.9167C16.15 12.5 16.3333 12.3167 16.3333 12.0833V11.25C16.3333 11.0167 16.15 10.8333 15.9167 10.8333Z" fill="#F2F3FF"/>
<path d="M16.75 14.1667H17.5833C17.8167 14.1667 18 13.9833 18 13.75V12.9167C18 12.6833 17.8167 12.5 17.5833 12.5H16.75C16.5167 12.5 16.3333 12.6833 16.3333 12.9167V13.75C16.3333 13.9833 16.5167 14.1667 16.75 14.1667Z" fill="#F2F3FF"/>
</g>
<defs>
<clipPath id="clip0_1627_2055">
<rect width="20" height="20" fill="white" transform="translate(0.5)"/>
</clipPath>
</defs>
</svg>
