<svg width="56" height="56" viewBox="0 0 56 56" fill="none" xmlns="http://www.w3.org/2000/svg">
<rect x="2" y="2" width="52" height="52" rx="26" fill="#F2F3FF"/>
<rect x="2" y="2" width="52" height="52" rx="26" stroke="#D4D7FA" stroke-width="4"/>
<path d="M24.1504 25.348C24.0822 24.7429 23.801 24.2741 23.3066 23.9418C22.8123 23.6051 22.1902 23.4368 21.4402 23.4368C20.9032 23.4368 20.4387 23.522 20.0467 23.6925C19.6547 23.8587 19.35 24.0888 19.1326 24.3828C18.9196 24.6726 18.813 25.0028 18.813 25.3736C18.813 25.6847 18.8855 25.9531 19.0304 26.179C19.1795 26.4048 19.3734 26.5945 19.612 26.7479C19.8549 26.897 20.1149 27.0227 20.3919 27.125C20.6689 27.223 20.9352 27.304 21.1909 27.3679L22.4693 27.7003C22.8869 27.8026 23.3152 27.9411 23.7541 28.1158C24.193 28.2905 24.6 28.5206 24.975 28.8061C25.35 29.0916 25.6525 29.4453 25.8826 29.8672C26.117 30.2891 26.2342 30.794 26.2342 31.3821C26.2342 32.1236 26.0424 32.782 25.6589 33.3572C25.2797 33.9325 24.7278 34.3864 24.0034 34.7188C23.2832 35.0511 22.4118 35.2173 21.389 35.2173C20.4089 35.2173 19.5609 35.0618 18.845 34.7507C18.1291 34.4396 17.5687 33.9986 17.1639 33.4276C16.7591 32.8523 16.5353 32.1705 16.4927 31.3821H18.4743C18.5126 31.8551 18.666 32.2493 18.9345 32.5646C19.2072 32.8757 19.5545 33.108 19.9764 33.2614C20.4025 33.4105 20.8691 33.4851 21.3762 33.4851C21.9345 33.4851 22.4309 33.3977 22.8656 33.223C23.3045 33.044 23.6497 32.7969 23.9011 32.4815C24.1525 32.1619 24.2782 31.7891 24.2782 31.3629C24.2782 30.9751 24.1674 30.6577 23.9458 30.4105C23.7285 30.1634 23.4324 29.9588 23.0574 29.7969C22.6866 29.6349 22.2669 29.4922 21.7981 29.3686L20.2512 28.9467C19.2029 28.6612 18.372 28.2415 17.7583 27.6875C17.149 27.1335 16.8443 26.4006 16.8443 25.4886C16.8443 24.7344 17.0488 24.076 17.4579 23.5135C17.867 22.951 18.421 22.5142 19.1199 22.2031C19.8187 21.8878 20.6071 21.7301 21.4849 21.7301C22.3713 21.7301 23.1532 21.8857 23.8308 22.1967C24.5126 22.5078 25.0495 22.9361 25.4416 23.4815C25.8336 24.0227 26.0382 24.6449 26.0552 25.348H24.1504ZM37.0128 21.9091H38.9943V30.5192C38.9943 31.4354 38.7791 32.2472 38.3487 32.9545C37.9183 33.6577 37.3132 34.2116 36.5334 34.6165C35.7536 35.017 34.8395 35.2173 33.7912 35.2173C32.7472 35.2173 31.8352 35.017 31.0554 34.6165C30.2756 34.2116 29.6705 33.6577 29.2401 32.9545C28.8097 32.2472 28.5945 31.4354 28.5945 30.5192V21.9091H30.5696V30.3594C30.5696 30.9517 30.6996 31.478 30.9595 31.9382C31.2237 32.3984 31.5966 32.7607 32.0781 33.0249C32.5597 33.2848 33.1307 33.4148 33.7912 33.4148C34.456 33.4148 35.0291 33.2848 35.5107 33.0249C35.9964 32.7607 36.3672 32.3984 36.6229 31.9382C36.8828 31.478 37.0128 30.9517 37.0128 30.3594V21.9091Z" fill="#2A2FAB"/>
<rect x="39.25" y="39.25" width="13.5" height="13.5" rx="5.75" fill="#D0D5DD"/>
<rect x="39.25" y="39.25" width="13.5" height="13.5" rx="5.75" stroke="white" stroke-width="1.5"/>
</svg>
