<svg width="20" height="20" viewBox="0 0 20 20" fill="none" xmlns="http://www.w3.org/2000/svg">
<path d="M12.5013 0.833332H3.33464C2.41797 0.833332 1.66797 1.58333 1.66797 2.5V13.3333C1.66797 13.7917 2.04297 14.1667 2.5013 14.1667C2.95964 14.1667 3.33464 13.7917 3.33464 13.3333V3.33333C3.33464 2.875 3.70964 2.5 4.16797 2.5H12.5013C12.9596 2.5 13.3346 2.125 13.3346 1.66667C13.3346 1.20833 12.9596 0.833332 12.5013 0.833332ZM15.8346 4.16667H6.66797C5.7513 4.16667 5.0013 4.91667 5.0013 5.83333V17.5C5.0013 18.4167 5.7513 19.1667 6.66797 19.1667H15.8346C16.7513 19.1667 17.5013 18.4167 17.5013 17.5V5.83333C17.5013 4.91667 16.7513 4.16667 15.8346 4.16667ZM15.0013 17.5H7.5013C7.04297 17.5 6.66797 17.125 6.66797 16.6667V6.66667C6.66797 6.20833 7.04297 5.83333 7.5013 5.83333H15.0013C15.4596 5.83333 15.8346 6.20833 15.8346 6.66667V16.6667C15.8346 17.125 15.4596 17.5 15.0013 17.5Z" fill="white"/>
</svg>
