<svg width="21" height="20" viewBox="0 0 21 20" fill="none" xmlns="http://www.w3.org/2000/svg">
<g clip-path="url(#clip0_1301_5942)">
<path d="M14.3263 7.5H13.0013V3.33333C13.0013 2.875 12.6263 2.5 12.168 2.5H8.83464C8.3763 2.5 8.0013 2.875 8.0013 3.33333V7.5H6.6763C5.93464 7.5 5.55964 8.4 6.08464 8.925L9.90964 12.75C10.2346 13.075 10.7596 13.075 11.0846 12.75L14.9096 8.925C15.4346 8.4 15.068 7.5 14.3263 7.5ZM4.66797 15.8333C4.66797 16.2917 5.04297 16.6667 5.5013 16.6667H15.5013C15.9596 16.6667 16.3346 16.2917 16.3346 15.8333C16.3346 15.375 15.9596 15 15.5013 15H5.5013C5.04297 15 4.66797 15.375 4.66797 15.8333Z" fill="#2A2FAB"/>
</g>
<defs>
<clipPath id="clip0_1301_5942">
<rect width="20" height="20" fill="white" transform="translate(0.5)"/>
</clipPath>
</defs>
</svg>
