<svg width="50" height="50" viewBox="0 0 50 50" fill="none" xmlns="http://www.w3.org/2000/svg">
<g clip-path="url(#clip0_1627_7481)">
<path d="M28.4509 23.7564L27.6349 22.4213L25.3039 18.6133C25.0847 18.2565 24.8687 17.9047 24.6561 17.5594C23.423 15.5584 22.33 13.7876 21.6756 12.7287C20.3766 10.1079 18.6803 7.38012 16.59 5.43173C15.99 4.802 15.2894 4.25777 14.4931 3.82699C9.9763 1.37877 4.10276 3.45376 1.37616 8.45872C-1.35043 13.4653 0.100236 19.5078 4.61708 21.956C5.37868 22.3687 6.17984 22.6515 6.99584 22.8159C7.4838 22.9557 9.22789 23.3963 11.9891 23.4095V23.4259C11.9891 23.4259 16.0543 23.5131 20.8546 23.6117C20.8579 23.6117 20.8612 23.6117 20.8629 23.6134C21.1398 23.6183 21.4184 23.6249 21.6987 23.6298C22.574 23.6479 23.4658 23.666 24.3593 23.6841C24.4335 23.6857 24.5093 23.6873 24.5835 23.689C24.6577 23.6906 24.7302 23.6923 24.8061 23.6939H24.816C25.0484 23.6989 25.2825 23.7038 25.5149 23.7087C26.176 23.7219 26.8288 23.735 27.4717 23.7465C27.803 23.7531 28.1294 23.7597 28.4542 23.7663C28.4542 23.763 28.4509 23.7597 28.4476 23.7564H28.4509ZM13.4727 19.9994L12.454 20.0257C10.2549 20.0257 8.85698 19.6541 8.49432 19.5439C7.94372 19.4239 7.40137 19.2266 6.8821 18.9455C3.80603 17.2782 2.72462 13.3338 4.46872 10.1342C6.21117 6.93618 10.1164 5.69316 13.1925 7.36039C13.7348 7.6547 14.2146 8.01971 14.6283 8.43734C17.0186 10.6011 18.7199 14.1427 19.6348 16.4134C20.1507 17.6926 20.4162 18.5673 20.4162 18.5673C17.7093 19.5259 15.3586 19.904 13.4727 19.9994V19.9994ZM24.5473 20.9366C24.5473 20.9366 24.5407 20.9317 24.539 20.9284C24.5423 20.9284 24.5456 20.9267 24.5505 20.9251C24.5505 20.9284 24.5473 20.9317 24.5473 20.9366V20.9366Z" fill="white"/>
<path d="M47.8638 8.95188C45.1372 3.94692 39.2637 1.87193 34.7468 4.32015C33.9506 4.75094 33.25 5.29517 32.6499 5.9249C31.0377 7.4277 29.6579 9.39581 28.5155 11.4198C28.5155 11.4248 28.5106 11.4281 28.5073 11.433C28.3556 11.673 27.233 13.457 25.7329 15.8444L25.7296 15.8477L24.6564 17.556V17.5593L24.0679 18.4932L23.4679 19.4501C23.4052 19.5504 23.3426 19.6507 23.2783 19.751H23.28C23.2206 19.8464 23.1596 19.9417 23.0986 20.0388C23.0393 20.1341 22.9799 20.2311 22.9173 20.3281C22.7986 20.5205 22.6766 20.7129 22.5546 20.9069C22.4887 21.0138 22.4227 21.119 22.3552 21.2259C22.2332 21.4215 22.1095 21.6188 21.9875 21.8145C21.6084 22.4212 21.2309 23.0246 20.8633 23.6133C21.1402 23.6182 21.4188 23.6248 21.6991 23.6297C22.5744 23.6478 23.4662 23.6659 24.3597 23.684C24.4339 23.6856 24.5097 23.6872 24.5839 23.6889C24.6581 23.6905 24.7306 23.6922 24.8065 23.6938H24.8163C25.0488 23.6987 25.2829 23.7037 25.5153 23.7086C26.1763 23.7218 26.8291 23.7349 27.4721 23.7464C27.4358 23.7086 27.3995 23.6692 27.3633 23.6313C27.4012 23.6708 27.4374 23.7086 27.4737 23.7464C27.805 23.753 28.1314 23.7596 28.4562 23.7662C32.2576 23.8418 35.4029 23.8993 36.087 23.8993C36.1431 23.8993 36.1892 23.8961 36.2288 23.8895C39.5818 23.9964 41.6985 23.4653 42.2425 23.3091C43.0585 23.1447 43.8596 22.8619 44.6212 22.4492C49.1381 20.0009 50.5887 13.9585 47.8621 8.95188H47.8638ZM35.304 22.5807C35.304 22.5807 35.3089 22.5642 35.3106 22.5544C35.3106 22.5642 35.3056 22.5725 35.3024 22.5807H35.304ZM42.3579 19.4386C41.8402 19.7198 41.2979 19.9171 40.7456 20.0371C40.0467 20.2492 35.5282 21.4347 28.8238 19.0604C28.8238 19.0604 30.8762 12.311 34.6116 8.9305C35.0254 8.51288 35.5051 8.14786 36.0475 7.85355C39.1235 6.18633 43.0304 7.42935 44.7729 10.6273C46.5153 13.8269 45.4339 17.7714 42.3579 19.4386Z" fill="white"/>
<path d="M34.4576 35.6193C34.334 35.0191 33.7405 32.5742 31.7195 29.2661C31.4739 28.7597 30.1205 26.5038 28.4555 23.7678C28.4555 23.7678 28.4522 23.7596 28.4489 23.7563L27.6329 22.4212L25.302 18.6133C25.0827 18.2565 24.8668 17.9046 24.6541 17.5593L24.0672 18.4932L23.4672 19.4502C23.4046 19.5505 23.3419 19.6508 23.2776 19.7511H23.2793C23.2199 19.8464 23.1589 19.9418 23.0979 20.0388C23.0386 20.1342 22.9792 20.2312 22.9166 20.3282C22.7979 20.5205 22.6759 20.7129 22.5539 20.9069C22.488 21.0138 22.4221 21.119 22.3545 21.2259C22.2325 21.4216 22.1088 21.6189 21.9869 21.8145C21.6077 22.4212 21.2302 23.0247 20.8626 23.6133C20.3153 24.488 19.7894 25.3331 19.3031 26.1141C17.9003 28.37 16.8419 30.0947 16.6243 30.5025C15.7473 32.03 15.0105 33.6347 14.5703 35.2345C14.2901 36.0566 14.1335 36.9281 14.1219 37.8324C14.0494 42.959 18.6223 47.1797 24.3327 47.2586C30.0446 47.3392 34.7329 43.2467 34.8055 38.1201C34.817 37.2553 34.6967 36.4167 34.4609 35.6193H34.4576ZM31.042 30.1358C31.042 30.1358 31.0552 30.1243 31.0601 30.1194C31.0552 30.1243 31.0502 30.1293 31.0453 30.1358C31.0436 30.1358 31.0436 30.1375 31.042 30.1375V30.1358ZM18.1937 29.6409L18.1756 29.6245C18.1822 29.6294 18.1888 29.636 18.1953 29.6409H18.1937ZM24.3788 43.7482C20.7291 43.6973 17.8096 40.8265 17.8591 37.3358C17.8673 36.7209 17.9679 36.1273 18.1475 35.5667C18.6058 33.7975 19.5619 32.0185 20.5939 30.4696C20.5939 30.4696 20.5988 30.4614 20.6087 30.4466C20.612 30.4417 20.6153 30.4367 20.6186 30.4302C20.6269 30.4187 20.6351 30.4039 20.6466 30.3874C21.3176 29.3927 22.0116 28.4982 22.6232 27.7633C23.6568 26.5219 24.4464 25.7458 24.4464 25.7458C29.6704 30.5601 30.7205 35.1013 30.8574 35.8166C31.0074 36.3592 31.0848 36.9313 31.0766 37.52C31.0271 41.0106 28.0286 43.7992 24.3788 43.7482V43.7482Z" fill="white"/>
</g>
<defs>
<clipPath id="clip0_1627_7481">
<rect width="49.2523" height="49.1245" fill="white" transform="translate(0 0.622559)"/>
</clipPath>
</defs>
</svg>
