<svg width="342" height="342" viewBox="0 0 342 342" fill="none" xmlns="http://www.w3.org/2000/svg">
<g clip-path="url(#clip0_19110_174416)">
<path d="M197.305 160.852L191.646 151.569L175.481 125.091C173.96 122.61 172.462 120.164 170.988 117.763C162.436 103.85 154.857 91.5373 150.318 84.1748C141.309 65.9516 129.545 46.9854 115.049 33.438C110.888 29.0594 106.029 25.2753 100.507 22.28C69.1825 5.25724 28.449 19.6849 9.53988 54.485C-9.36924 89.2965 0.691236 131.31 32.0159 148.333C37.2977 151.203 42.8538 153.169 48.5128 154.312C51.8968 155.284 63.9922 158.348 83.1414 158.439V158.554C83.1414 158.554 111.334 159.16 144.625 159.846C144.648 159.846 144.67 159.846 144.682 159.857C146.602 159.891 148.535 159.937 150.478 159.971C156.549 160.097 162.734 160.223 168.93 160.349C169.444 160.36 169.97 160.372 170.485 160.383C170.999 160.394 171.502 160.406 172.028 160.417H172.097C173.709 160.452 175.332 160.486 176.944 160.52C181.528 160.612 186.056 160.703 190.514 160.783C192.812 160.829 195.076 160.875 197.328 160.92C197.328 160.897 197.305 160.875 197.282 160.852H197.305ZM93.4306 134.729L86.3654 134.912C71.1146 134.912 61.4199 132.328 58.9048 131.562C55.0864 130.727 51.3252 129.356 47.724 127.401C26.3912 115.808 18.8916 88.3819 30.987 66.1346C43.071 43.8986 70.1543 35.2558 91.4871 46.8482C95.2483 48.8946 98.5751 51.4325 101.445 54.3364C118.022 69.3814 129.82 94.0067 136.165 109.795C139.743 118.689 141.584 124.771 141.584 124.771C122.812 131.436 106.509 134.066 93.4306 134.729ZM170.233 141.245C170.233 141.245 170.187 141.211 170.176 141.188C170.199 141.188 170.222 141.177 170.256 141.165C170.256 141.188 170.233 141.211 170.233 141.245Z" fill="white"/>
<path d="M331.944 57.9145C313.035 23.1144 272.301 8.68681 240.977 25.7096C235.455 28.7049 230.596 32.489 226.435 36.8676C215.254 47.3168 205.685 61.0013 197.762 75.0745C197.762 75.1088 197.728 75.1317 197.705 75.166C196.653 76.8351 188.868 89.2392 178.465 105.839L178.442 105.862L170.999 117.74V117.763L166.918 124.257L162.756 130.91C162.322 131.608 161.888 132.305 161.442 133.002H161.453C161.042 133.665 160.619 134.328 160.196 135.003C159.784 135.666 159.373 136.341 158.938 137.015C158.115 138.353 157.269 139.69 156.423 141.039C155.966 141.782 155.508 142.514 155.04 143.257C154.194 144.618 153.336 145.989 152.49 147.35C149.861 151.568 147.243 155.764 144.693 159.857C146.614 159.891 148.546 159.937 150.49 159.971C156.56 160.097 162.745 160.223 168.941 160.348C169.456 160.36 169.982 160.371 170.496 160.383C171.011 160.394 171.514 160.406 172.04 160.417H172.108C173.72 160.451 175.344 160.486 176.955 160.52C181.54 160.611 186.067 160.703 190.526 160.783C190.274 160.52 190.023 160.246 189.771 159.983C190.034 160.257 190.286 160.52 190.537 160.783C192.835 160.829 195.099 160.874 197.351 160.92C223.714 161.446 245.527 161.846 250.271 161.846C250.66 161.846 250.98 161.823 251.254 161.778C274.508 162.521 289.187 158.828 292.96 157.742C298.619 156.599 304.175 154.632 309.457 151.763C340.781 134.74 350.842 92.7261 331.933 57.9145H331.944ZM244.841 152.677C244.841 152.677 244.875 152.563 244.887 152.494C244.887 152.563 244.852 152.62 244.829 152.677H244.841ZM293.76 130.83C290.17 132.785 286.409 134.157 282.579 134.992C277.732 136.466 246.396 144.709 199.9 128.201C199.9 128.201 214.134 81.2709 240.039 57.7659C242.909 54.8621 246.236 52.3241 249.997 50.2777C271.33 38.6853 298.424 47.3282 310.508 69.5641C322.592 91.8115 315.093 119.238 293.76 130.83Z" fill="white"/>
<path d="M238.986 243.336C238.129 239.163 234.013 222.163 219.997 199.162C218.294 195.64 208.908 179.955 197.361 160.932C197.361 160.932 197.338 160.875 197.315 160.852L191.656 151.569L175.491 125.091C173.97 122.61 172.473 120.164 170.998 117.763L166.928 124.257L162.767 130.91C162.332 131.608 161.898 132.305 161.452 133.002H161.463C161.052 133.666 160.629 134.329 160.206 135.003C159.794 135.666 159.383 136.341 158.948 137.015C158.125 138.353 157.279 139.69 156.433 141.039C155.976 141.783 155.519 142.514 155.05 143.257C154.204 144.618 153.346 145.99 152.5 147.35C149.871 151.569 147.253 155.764 144.704 159.857C140.908 165.939 137.261 171.815 133.888 177.246C124.16 192.931 116.82 204.923 115.311 207.759C109.229 218.379 104.119 229.537 101.066 240.661C99.1227 246.377 98.0366 252.436 97.9566 258.724C97.4536 294.37 129.167 323.717 168.769 324.266C208.382 324.826 240.895 296.371 241.398 260.725C241.478 254.711 240.644 248.881 239.009 243.336H238.986ZM215.298 205.209C215.298 205.209 215.39 205.129 215.424 205.095C215.39 205.129 215.355 205.164 215.321 205.209C215.31 205.209 215.31 205.221 215.298 205.221V205.209ZM126.195 201.768L126.069 201.654C126.114 201.688 126.16 201.734 126.206 201.768H126.195ZM169.089 299.858C143.777 299.503 123.531 279.542 123.874 255.272C123.931 250.996 124.628 246.869 125.874 242.97C129.053 230.669 135.683 218.299 142.84 207.53C142.84 207.53 142.874 207.473 142.943 207.37C142.966 207.336 142.989 207.301 143.012 207.256C143.069 207.176 143.126 207.073 143.206 206.958C147.859 200.042 152.672 193.823 156.913 188.712C164.081 180.081 169.557 174.685 169.557 174.685C205.787 208.159 213.069 239.735 214.018 244.708C215.058 248.481 215.596 252.459 215.538 256.552C215.195 280.823 194.4 300.212 169.089 299.858Z" fill="white"/>
</g>
<defs>
<clipPath id="clip0_19110_174416">
<rect width="341.569" height="341.569" fill="white"/>
</clipPath>
</defs>
</svg>
