<svg width="1561" height="445" viewBox="0 0 1561 445" fill="none" xmlns="http://www.w3.org/2000/svg">
<g clip-path="url(#clip0_20937_621)">
<path d="M1484.89 278.562C1464.09 278.562 1446.94 271.433 1433.45 257.175C1419.96 242.917 1413.22 224.901 1413.22 203.128C1413.22 181.548 1419.77 163.629 1432.87 149.371C1445.97 134.92 1462.74 127.694 1483.16 127.694C1504.16 127.694 1520.83 134.534 1533.16 148.214C1545.69 161.702 1551.95 180.681 1551.95 205.151L1551.66 208.042H1440.39C1440.77 221.914 1445.4 233.09 1454.26 241.568C1463.12 250.046 1473.72 254.285 1486.05 254.285C1503.01 254.285 1516.3 245.807 1525.94 228.851L1549.64 240.412C1543.28 252.358 1534.41 261.703 1523.05 268.447C1511.87 275.19 1499.15 278.562 1484.89 278.562ZM1442.41 186.076H1523.62C1522.85 176.249 1518.81 168.157 1511.48 161.798C1504.36 155.247 1494.72 151.972 1482.58 151.972C1472.56 151.972 1463.89 155.055 1456.57 161.22C1449.44 167.386 1444.72 175.671 1442.41 186.076Z" fill="white"/>
<path d="M1348.76 273.938H1322.17V132.318H1347.61V155.44H1348.76C1351.46 147.926 1356.95 141.567 1365.24 136.365C1373.72 130.97 1382 128.272 1390.09 128.272C1397.8 128.272 1404.35 129.428 1409.75 131.74L1401.65 157.463C1398.38 156.114 1393.18 155.44 1386.05 155.44C1376.03 155.44 1367.26 159.486 1359.75 167.579C1352.42 175.671 1348.76 185.113 1348.76 195.903V273.938Z" fill="white"/>
<path d="M1152.29 203.128C1152.29 181.355 1159.13 163.34 1172.81 149.082C1186.68 134.823 1204.12 127.694 1225.12 127.694C1246.12 127.694 1263.46 134.823 1277.14 149.082C1291.02 163.34 1297.95 181.355 1297.95 203.128C1297.95 225.094 1291.02 243.109 1277.14 257.175C1263.46 271.433 1246.12 278.562 1225.12 278.562C1204.12 278.562 1186.68 271.433 1172.81 257.175C1159.13 242.917 1152.29 224.901 1152.29 203.128ZM1178.88 203.128C1178.88 218.35 1183.31 230.681 1192.17 240.123C1201.04 249.564 1212.02 254.285 1225.12 254.285C1238.22 254.285 1249.21 249.564 1258.07 240.123C1266.93 230.681 1271.36 218.35 1271.36 203.128C1271.36 188.099 1266.93 175.864 1258.07 166.423C1249.01 156.789 1238.03 151.972 1225.12 151.972C1212.21 151.972 1201.23 156.789 1192.17 166.423C1183.31 175.864 1178.88 188.099 1178.88 203.128Z" fill="white"/>
<path d="M1112.8 276.25C1101.24 276.25 1091.6 272.686 1083.9 265.557C1076.38 258.427 1072.53 248.504 1072.33 235.788V156.596H1047.48V132.319H1072.33V88.9656H1098.92V132.319H1133.61V156.596H1098.92V227.117C1098.92 236.558 1100.75 243.013 1104.42 246.481C1108.08 249.757 1112.22 251.395 1116.84 251.395C1118.96 251.395 1120.99 251.202 1122.91 250.817C1125.03 250.239 1126.96 249.564 1128.69 248.793L1137.07 272.493C1130.14 274.998 1122.05 276.25 1112.8 276.25Z" fill="white"/>
<path d="M1032.1 234.631C1032.1 246.963 1026.71 257.368 1015.92 265.845C1005.13 274.323 991.546 278.562 975.168 278.562C960.909 278.562 948.385 274.901 937.595 267.58C926.805 260.065 919.098 250.238 914.474 238.1L938.173 227.984C941.642 236.462 946.651 243.109 953.202 247.926C959.946 252.551 967.268 254.863 975.168 254.863C983.646 254.863 990.678 253.032 996.266 249.371C1002.05 245.71 1004.94 241.375 1004.94 236.365C1004.94 227.31 998 220.662 984.127 216.423L959.85 210.354C932.297 203.417 918.52 190.122 918.52 170.469C918.52 157.559 923.722 147.251 934.127 139.544C944.724 131.644 958.212 127.694 974.59 127.694C987.114 127.694 998.386 130.681 1008.41 136.654C1018.62 142.627 1025.75 150.623 1029.79 160.642L1006.09 170.469C1003.4 164.496 998.964 159.872 992.798 156.596C986.825 153.128 980.081 151.394 972.567 151.394C965.63 151.394 959.368 153.128 953.78 156.596C948.385 160.064 945.688 164.303 945.688 169.313C945.688 177.405 953.299 183.186 968.52 186.654L989.908 192.145C1018.04 199.082 1032.1 213.244 1032.1 234.631Z" fill="white"/>
<path d="M890.652 256.019C890.652 261.414 888.726 266.038 884.872 269.892C881.211 273.745 876.587 275.672 870.999 275.672C865.604 275.672 860.98 273.745 857.126 269.892C853.272 266.038 851.346 261.414 851.346 256.019C851.346 250.431 853.272 245.807 857.126 242.146C860.98 238.292 865.604 236.365 870.999 236.365C876.587 236.365 881.211 238.292 884.872 242.146C888.726 245.807 890.652 250.431 890.652 256.019Z" fill="white"/>
<path d="M787.047 92.4337V273.938H760.457V92.4337H702.653V67H844.851V92.4337H787.047Z" fill="white"/>
<path d="M538.985 273.938H512.396V67H544.766L645.345 227.984H646.501L645.345 188.099V67H671.934V273.938H644.188L538.985 105.151H537.829L538.985 145.035V273.938Z" fill="white"/>
<path d="M467.791 273.938H441.201V67H467.791V273.938Z" fill="white"/>
<path d="M1533.39 354.328C1530.03 354.328 1526.86 353.787 1523.89 352.703C1520.96 351.566 1518.41 349.995 1516.25 347.99L1519.9 344.09C1521.8 345.823 1523.89 347.178 1526.16 348.153C1528.44 349.074 1530.76 349.534 1533.15 349.534C1536.4 349.534 1539.05 348.857 1541.11 347.503C1543.17 346.148 1544.2 344.388 1544.2 342.221C1544.2 340.433 1543.58 339.052 1542.33 338.077C1541.14 337.048 1539.24 336.344 1536.64 335.964L1529.57 334.989C1525.51 334.393 1522.48 333.175 1520.47 331.333C1518.52 329.491 1517.55 326.999 1517.55 323.857C1517.55 321.582 1518.2 319.551 1519.5 317.763C1520.8 315.975 1522.59 314.567 1524.86 313.538C1527.19 312.509 1529.84 311.994 1532.82 311.994C1535.8 311.994 1538.59 312.427 1541.19 313.294C1543.79 314.161 1546.34 315.515 1548.83 317.357L1545.66 321.42C1543.39 319.849 1541.17 318.711 1539 318.007C1536.89 317.248 1534.72 316.869 1532.5 316.869C1529.68 316.869 1527.41 317.492 1525.67 318.738C1523.94 319.984 1523.07 321.609 1523.07 323.613C1523.07 325.455 1523.67 326.864 1524.86 327.839C1526.05 328.76 1527.98 329.41 1530.63 329.789L1537.7 330.764C1541.76 331.306 1544.79 332.497 1546.8 334.339C1548.86 336.181 1549.89 338.7 1549.89 341.896C1549.89 344.225 1549.16 346.338 1547.69 348.234C1546.23 350.13 1544.25 351.62 1541.76 352.703C1539.32 353.787 1536.53 354.328 1533.39 354.328Z" fill="white"/>
<path d="M1493.22 354.247C1489.32 354.247 1485.78 353.326 1482.58 351.484C1479.44 349.588 1476.92 347.042 1475.02 343.846C1473.18 340.65 1472.26 337.075 1472.26 333.12C1472.26 329.22 1473.15 325.699 1474.94 322.557C1476.73 319.361 1479.14 316.842 1482.17 315C1485.21 313.104 1488.59 312.156 1492.33 312.156C1495.96 312.156 1499.21 313.104 1502.08 315C1505.01 316.842 1507.31 319.361 1508.99 322.557C1510.72 325.699 1511.59 329.22 1511.59 333.12V334.989H1478.19C1478.52 337.644 1479.36 340.027 1480.71 342.14C1482.12 344.252 1483.93 345.932 1486.16 347.178C1488.38 348.369 1490.81 348.965 1493.47 348.965C1495.58 348.965 1497.64 348.64 1499.64 347.99C1501.65 347.34 1503.33 346.419 1504.68 345.227L1508.42 349.209C1506.14 350.888 1503.76 352.161 1501.27 353.028C1498.83 353.841 1496.15 354.247 1493.22 354.247ZM1478.35 330.195H1505.58C1505.25 327.757 1504.44 325.591 1503.14 323.695C1501.89 321.744 1500.32 320.228 1498.43 319.144C1496.53 318.007 1494.44 317.438 1492.17 317.438C1489.84 317.438 1487.7 317.98 1485.75 319.063C1483.8 320.146 1482.17 321.663 1480.87 323.613C1479.57 325.509 1478.73 327.703 1478.35 330.195Z" fill="white"/>
<path d="M1448.9 353.516V312.806H1454.91V318.576C1456.15 316.463 1457.73 314.838 1459.62 313.7C1461.57 312.508 1463.79 311.913 1466.28 311.913C1467.69 311.913 1468.97 312.102 1470.1 312.481V318.007C1469.4 317.736 1468.69 317.546 1467.99 317.438C1467.29 317.33 1466.58 317.275 1465.88 317.275C1463.39 317.275 1461.19 318.007 1459.3 319.469C1457.45 320.878 1455.99 322.936 1454.91 325.645V353.516H1448.9Z" fill="white"/>
<path d="M1419.74 354.328C1415.9 354.328 1412.37 353.407 1409.18 351.566C1406.04 349.67 1403.54 347.124 1401.7 343.928C1399.86 340.731 1398.94 337.156 1398.94 333.202C1398.94 329.247 1399.86 325.672 1401.7 322.476C1403.54 319.28 1406.04 316.761 1409.18 314.919C1412.37 313.023 1415.9 312.075 1419.74 312.075C1423.64 312.075 1427.16 313.023 1430.31 314.919C1433.45 316.761 1435.94 319.28 1437.78 322.476C1439.62 325.672 1440.54 329.247 1440.54 333.202C1440.54 337.156 1439.62 340.731 1437.78 343.928C1435.94 347.124 1433.45 349.67 1430.31 351.566C1427.16 353.407 1423.64 354.328 1419.74 354.328ZM1419.74 348.965C1422.5 348.965 1425 348.261 1427.22 346.853C1429.49 345.444 1431.28 343.548 1432.58 341.165C1433.93 338.781 1434.61 336.127 1434.61 333.202C1434.61 330.222 1433.93 327.568 1432.58 325.239C1431.28 322.855 1429.49 320.959 1427.22 319.551C1425 318.142 1422.5 317.438 1419.74 317.438C1416.98 317.438 1414.46 318.142 1412.19 319.551C1409.96 320.959 1408.18 322.855 1406.82 325.239C1405.52 327.568 1404.87 330.222 1404.87 333.202C1404.87 336.127 1405.52 338.781 1406.82 341.165C1408.18 343.548 1409.96 345.444 1412.19 346.853C1414.46 348.261 1416.98 348.965 1419.74 348.965Z" fill="white"/>
<path d="M1371.49 354.166C1367.7 354.166 1364.23 353.245 1361.09 351.403C1358 349.507 1355.53 346.988 1353.69 343.846C1351.9 340.65 1351.01 337.075 1351.01 333.12C1351.01 329.166 1351.9 325.618 1353.69 322.476C1355.53 319.334 1358 316.842 1361.09 315C1364.23 313.104 1367.72 312.156 1371.57 312.156C1373.95 312.156 1376.25 312.563 1378.48 313.375C1380.7 314.134 1382.73 315.271 1384.57 316.788V296.636L1390.58 295.255V353.516H1384.65V349.209C1381.08 352.513 1376.69 354.166 1371.49 354.166ZM1372.06 348.884C1374.6 348.884 1376.96 348.396 1379.13 347.421C1381.35 346.392 1383.16 344.984 1384.57 343.196V323.045C1383.16 321.311 1381.35 319.957 1379.13 318.982C1376.96 317.953 1374.6 317.438 1372.06 317.438C1369.24 317.438 1366.67 318.115 1364.34 319.469C1362.06 320.824 1360.25 322.693 1358.89 325.076C1357.59 327.405 1356.94 330.06 1356.94 333.039C1356.94 336.019 1357.59 338.7 1358.89 341.083C1360.25 343.467 1362.06 345.363 1364.34 346.771C1366.67 348.18 1369.24 348.884 1372.06 348.884Z" fill="white"/>
<path d="M1326.11 354.247C1322.21 354.247 1318.66 353.326 1315.47 351.484C1312.32 349.588 1309.81 347.042 1307.91 343.846C1306.07 340.65 1305.15 337.075 1305.15 333.12C1305.15 329.22 1306.04 325.699 1307.83 322.557C1309.62 319.361 1312.03 316.842 1315.06 315C1318.09 313.104 1321.48 312.156 1325.22 312.156C1328.85 312.156 1332.1 313.104 1334.97 315C1337.89 316.842 1340.19 319.361 1341.87 322.557C1343.61 325.699 1344.47 329.22 1344.47 333.12V334.989H1311.08C1311.4 337.644 1312.24 340.027 1313.6 342.14C1315.01 344.252 1316.82 345.932 1319.04 347.178C1321.26 348.369 1323.7 348.965 1326.35 348.965C1328.47 348.965 1330.53 348.64 1332.53 347.99C1334.53 347.34 1336.21 346.419 1337.57 345.227L1341.31 349.209C1339.03 350.888 1336.65 352.161 1334.15 353.028C1331.72 353.841 1329.04 354.247 1326.11 354.247ZM1311.24 330.195H1338.46C1338.14 327.757 1337.32 325.591 1336.02 323.695C1334.78 321.744 1333.21 320.228 1331.31 319.144C1329.41 318.007 1327.33 317.438 1325.05 317.438C1322.72 317.438 1320.59 317.98 1318.63 319.063C1316.68 320.146 1315.06 321.663 1313.76 323.613C1312.46 325.509 1311.62 327.703 1311.24 330.195Z" fill="white"/>
<path d="M1277.7 354.166C1273.9 354.166 1270.44 353.245 1267.29 351.403C1264.21 349.507 1261.74 346.988 1259.9 343.846C1258.11 340.65 1257.22 337.075 1257.22 333.12C1257.22 329.166 1258.11 325.618 1259.9 322.476C1261.74 319.334 1264.21 316.842 1267.29 315C1270.44 313.104 1273.93 312.156 1277.78 312.156C1280.16 312.156 1282.46 312.563 1284.68 313.375C1286.9 314.134 1288.94 315.271 1290.78 316.788V296.636L1296.79 295.255V353.516H1290.86V349.209C1287.28 352.513 1282.9 354.166 1277.7 354.166ZM1278.26 348.884C1280.81 348.884 1283.17 348.396 1285.33 347.421C1287.55 346.392 1289.37 344.984 1290.78 343.196V323.045C1289.37 321.311 1287.55 319.957 1285.33 318.982C1283.17 317.953 1280.81 317.438 1278.26 317.438C1275.45 317.438 1272.87 318.115 1270.54 319.469C1268.27 320.824 1266.45 322.693 1265.1 325.076C1263.8 327.405 1263.15 330.06 1263.15 333.039C1263.15 336.019 1263.8 338.7 1265.1 341.083C1266.45 343.467 1268.27 345.363 1270.54 346.771C1272.87 348.18 1275.45 348.884 1278.26 348.884Z" fill="white"/>
<path d="M1214.49 353.516V312.806H1220.5V317.601C1223.7 313.863 1227.98 311.994 1233.34 311.994C1236.43 311.994 1239.14 312.671 1241.47 314.025C1243.85 315.325 1245.69 317.167 1246.99 319.551C1248.35 321.88 1249.02 324.616 1249.02 327.758V353.516H1243.09V328.976C1243.09 325.347 1242.06 322.503 1240.01 320.445C1238 318.332 1235.24 317.276 1231.72 317.276C1229.28 317.276 1227.11 317.817 1225.22 318.901C1223.32 319.984 1221.75 321.528 1220.5 323.532V353.516H1214.49Z" fill="white"/>
<path d="M1187.72 354.247C1183.82 354.247 1180.27 353.326 1177.08 351.484C1173.94 349.588 1171.42 347.042 1169.52 343.846C1167.68 340.65 1166.76 337.075 1166.76 333.12C1166.76 329.22 1167.65 325.699 1169.44 322.557C1171.23 319.361 1173.64 316.842 1176.67 315C1179.7 313.104 1183.09 312.156 1186.83 312.156C1190.46 312.156 1193.71 313.104 1196.58 315C1199.5 316.842 1201.81 319.361 1203.49 322.557C1205.22 325.699 1206.09 329.22 1206.09 333.12V334.989H1172.69C1173.01 337.644 1173.85 340.027 1175.21 342.14C1176.62 344.252 1178.43 345.932 1180.65 347.178C1182.87 348.369 1185.31 348.965 1187.97 348.965C1190.08 348.965 1192.14 348.64 1194.14 347.99C1196.15 347.34 1197.82 346.419 1199.18 345.227L1202.92 349.209C1200.64 350.888 1198.26 352.161 1195.77 353.028C1193.33 353.841 1190.65 354.247 1187.72 354.247ZM1172.85 330.195H1200.07C1199.75 327.757 1198.94 325.591 1197.64 323.695C1196.39 321.744 1194.82 320.228 1192.92 319.144C1191.03 318.007 1188.94 317.438 1186.67 317.438C1184.34 317.438 1182.2 317.98 1180.25 319.063C1178.3 320.146 1176.67 321.663 1175.37 323.613C1174.07 325.509 1173.23 327.703 1172.85 330.195Z" fill="white"/>
<path d="M1143.39 353.516V312.806H1149.41V318.576C1150.65 316.463 1152.22 314.838 1154.12 313.7C1156.07 312.508 1158.29 311.913 1160.78 311.913C1162.19 311.913 1163.46 312.102 1164.6 312.481V318.007C1163.9 317.736 1163.19 317.546 1162.49 317.438C1161.78 317.33 1161.08 317.275 1160.38 317.275C1157.88 317.275 1155.69 318.007 1153.79 319.469C1151.95 320.878 1150.49 322.936 1149.41 325.645V353.516H1143.39Z" fill="white"/>
<path d="M1095.46 370.092V312.806H1101.4V317.194C1104.92 313.836 1109.3 312.156 1114.56 312.156C1118.41 312.156 1121.87 313.104 1124.96 315C1128.05 316.842 1130.49 319.334 1132.27 322.476C1134.11 325.618 1135.04 329.166 1135.04 333.12C1135.04 337.075 1134.11 340.65 1132.27 343.846C1130.49 346.988 1128.05 349.507 1124.96 351.403C1121.87 353.245 1118.38 354.166 1114.48 354.166C1112.09 354.166 1109.79 353.759 1107.57 352.947C1105.35 352.134 1103.32 350.969 1101.48 349.453V370.092H1095.46ZM1113.99 348.884C1116.86 348.884 1119.43 348.207 1121.71 346.853C1123.98 345.444 1125.77 343.575 1127.07 341.246C1128.43 338.862 1129.1 336.181 1129.1 333.202C1129.1 330.222 1128.43 327.541 1127.07 325.157C1125.77 322.774 1123.98 320.905 1121.71 319.551C1119.43 318.142 1116.86 317.438 1113.99 317.438C1111.44 317.438 1109.06 317.953 1106.84 318.982C1104.67 319.957 1102.89 321.338 1101.48 323.126V343.277C1102.89 345.011 1104.7 346.392 1106.92 347.421C1109.14 348.396 1111.5 348.884 1113.99 348.884Z" fill="white"/>
<path d="M1025.63 353.516V312.806H1031.65V317.276C1034.74 313.754 1038.72 311.994 1043.59 311.994C1046.46 311.994 1049.01 312.671 1051.23 314.025C1053.45 315.325 1055.18 317.113 1056.43 319.388C1058.11 316.896 1060.11 315.055 1062.44 313.863C1064.77 312.617 1067.43 311.994 1070.41 311.994C1073.39 311.994 1075.99 312.671 1078.21 314.025C1080.43 315.325 1082.16 317.167 1083.41 319.551C1084.71 321.88 1085.36 324.616 1085.36 327.758V353.516H1079.43V328.976C1079.43 325.347 1078.48 322.503 1076.58 320.445C1074.69 318.332 1072.11 317.276 1068.86 317.276C1066.64 317.276 1064.61 317.844 1062.77 318.982C1060.93 320.065 1059.36 321.718 1058.06 323.939C1058.16 324.534 1058.25 325.157 1058.3 325.807C1058.41 326.403 1058.46 327.053 1058.46 327.758V353.516H1052.53V328.976C1052.53 325.347 1051.58 322.503 1049.69 320.445C1047.79 318.332 1045.24 317.276 1042.05 317.276C1039.88 317.276 1037.9 317.79 1036.12 318.819C1034.38 319.794 1032.89 321.257 1031.65 323.207V353.516H1025.63Z" fill="white"/>
<path d="M997.322 354C993.355 354 989.747 353.081 986.496 351.243C983.3 349.351 980.738 346.811 978.81 343.622C976.937 340.432 976 336.865 976 332.919C976 329.027 976.909 325.514 978.727 322.378C980.545 319.189 982.997 316.676 986.083 314.838C989.168 312.946 992.612 312 996.413 312C1000.1 312 1003.41 312.946 1006.33 314.838C1009.31 316.676 1011.65 319.189 1013.36 322.378C1015.12 325.514 1016 329.027 1016 332.919V334.784H982.033C982.364 337.432 983.218 339.811 984.595 341.919C986.028 344.027 987.873 345.703 990.132 346.946C992.391 348.135 994.871 348.73 997.57 348.73C999.719 348.73 1001.81 348.405 1003.85 347.757C1005.89 347.108 1007.6 346.189 1008.98 345L1012.78 348.973C1010.46 350.649 1008.04 351.919 1005.5 352.784C1003.02 353.595 1000.3 354 997.322 354ZM982.198 330H1009.88C1009.55 327.568 1008.73 325.405 1007.4 323.514C1006.14 321.568 1004.54 320.054 1002.61 318.973C1000.68 317.838 998.562 317.27 996.248 317.27C993.879 317.27 991.702 317.811 989.719 318.892C987.736 319.973 986.083 321.486 984.76 323.432C983.438 325.324 982.584 327.514 982.198 330Z" fill="white"/>
<path d="M928.953 354.328C925.107 354.328 921.586 353.407 918.39 351.566C915.248 349.67 912.756 347.124 910.914 343.928C909.072 340.731 908.151 337.156 908.151 333.202C908.151 329.247 909.072 325.672 910.914 322.476C912.756 319.28 915.248 316.761 918.39 314.919C921.586 313.023 925.107 312.075 928.953 312.075C932.853 312.075 936.374 313.023 939.516 314.919C942.658 316.761 945.15 319.28 946.992 322.476C948.833 325.672 949.754 329.247 949.754 333.202C949.754 337.156 948.833 340.731 946.992 343.928C945.15 347.124 942.658 349.67 939.516 351.566C936.374 353.407 932.853 354.328 928.953 354.328ZM928.953 348.965C931.716 348.965 934.207 348.261 936.428 346.853C938.704 345.444 940.491 343.548 941.791 341.165C943.146 338.781 943.823 336.127 943.823 333.202C943.823 330.222 943.146 327.568 941.791 325.239C940.491 322.855 938.704 320.959 936.428 319.551C934.207 318.142 931.716 317.438 928.953 317.438C926.19 317.438 923.671 318.142 921.396 319.551C919.175 320.959 917.387 322.855 916.033 325.239C914.733 327.568 914.083 330.222 914.083 333.202C914.083 336.127 914.733 338.781 916.033 341.165C917.387 343.548 919.175 345.444 921.396 346.853C923.671 348.261 926.19 348.965 928.953 348.965Z" fill="white"/>
<path d="M880.699 354.166C876.907 354.166 873.44 353.245 870.298 351.403C867.211 349.507 864.746 346.988 862.904 343.846C861.116 340.65 860.223 337.075 860.223 333.12C860.223 329.166 861.116 325.618 862.904 322.476C864.746 319.334 867.211 316.842 870.298 315C873.44 313.104 876.934 312.156 880.78 312.156C883.164 312.156 885.466 312.563 887.687 313.375C889.908 314.134 891.94 315.271 893.781 316.788V296.636L899.794 295.255V353.516H893.863V349.209C890.287 352.513 885.9 354.166 880.699 354.166ZM881.268 348.884C883.814 348.884 886.17 348.396 888.337 347.421C890.558 346.392 892.373 344.984 893.781 343.196V323.045C892.373 321.311 890.558 319.957 888.337 318.982C886.17 317.953 883.814 317.438 881.268 317.438C878.451 317.438 875.878 318.115 873.549 319.469C871.273 320.824 869.459 322.693 868.104 325.076C866.804 327.405 866.154 330.06 866.154 333.039C866.154 336.019 866.804 338.7 868.104 341.083C869.459 343.467 871.273 345.363 873.549 346.771C875.878 348.18 878.451 348.884 881.268 348.884Z" fill="white"/>
<path d="M817.496 353.516V312.806H823.509V317.601C826.705 313.863 830.985 311.994 836.347 311.994C839.435 311.994 842.144 312.671 844.473 314.025C846.857 315.325 848.698 317.167 849.998 319.551C851.353 321.88 852.03 324.616 852.03 327.758V353.516H846.098V328.976C846.098 325.347 845.069 322.503 843.01 320.445C841.006 318.332 838.243 317.276 834.722 317.276C832.285 317.276 830.118 317.817 828.222 318.901C826.326 319.984 824.755 321.528 823.509 323.532V353.516H817.496Z" fill="white"/>
<path d="M788.438 354.247C785.458 354.247 782.831 353.732 780.556 352.703C778.335 351.674 776.574 350.238 775.274 348.397C774.028 346.555 773.405 344.415 773.405 341.977C773.405 338.131 774.868 335.098 777.793 332.877C780.718 330.656 784.673 329.545 789.656 329.545C794.044 329.545 798.026 330.466 801.601 332.308V326.945C801.601 323.695 800.68 321.257 798.838 319.632C796.997 317.953 794.315 317.113 790.794 317.113C788.79 317.113 786.758 317.411 784.7 318.007C782.696 318.549 780.475 319.442 778.037 320.688L775.762 316.057C778.687 314.648 781.395 313.619 783.887 312.969C786.379 312.319 788.871 311.994 791.363 311.994C796.509 311.994 800.463 313.213 803.226 315.65C806.043 318.088 807.451 321.582 807.451 326.132V353.516H801.601V349.534C799.759 351.105 797.728 352.297 795.507 353.109C793.34 353.868 790.984 354.247 788.438 354.247ZM779.174 341.815C779.174 344.09 780.122 345.959 782.018 347.421C783.969 348.83 786.46 349.534 789.494 349.534C791.932 349.534 794.153 349.155 796.157 348.397C798.161 347.638 799.976 346.446 801.601 344.821V337.183C799.922 336.046 798.134 335.233 796.238 334.746C794.342 334.204 792.202 333.933 789.819 333.933C786.569 333.933 783.969 334.664 782.018 336.127C780.122 337.535 779.174 339.431 779.174 341.815Z" fill="white"/>
<path d="M749.571 353.516V312.806H755.584V318.576C756.83 316.463 758.401 314.838 760.297 313.7C762.247 312.508 764.468 311.913 766.96 311.913C768.368 311.913 769.642 312.102 770.779 312.481V318.007C770.075 317.736 769.371 317.546 768.666 317.438C767.962 317.33 767.258 317.275 766.554 317.275C764.062 317.275 761.868 318.007 759.972 319.469C758.13 320.878 756.668 322.936 755.584 325.645V353.516H749.571Z" fill="white"/>
<path d="M722.802 354.247C718.902 354.247 715.353 353.326 712.157 351.484C709.015 349.588 706.497 347.042 704.601 343.846C702.759 340.65 701.838 337.075 701.838 333.12C701.838 329.22 702.732 325.699 704.519 322.557C706.307 319.361 708.718 316.842 711.751 315C714.785 313.104 718.17 312.156 721.908 312.156C725.538 312.156 728.788 313.104 731.659 315C734.584 316.842 736.886 319.361 738.566 322.557C740.299 325.699 741.166 329.22 741.166 333.12V334.989H707.77C708.095 337.644 708.934 340.027 710.289 342.14C711.697 344.252 713.512 345.932 715.733 347.178C717.954 348.369 720.391 348.965 723.046 348.965C725.158 348.965 727.217 348.64 729.221 347.99C731.225 347.34 732.905 346.419 734.259 345.227L737.997 349.209C735.722 350.888 733.338 352.161 730.846 353.028C728.409 353.841 725.727 354.247 722.802 354.247ZM707.932 330.195H735.153C734.828 327.757 734.015 325.591 732.715 323.695C731.469 321.744 729.898 320.228 728.002 319.144C726.106 318.007 724.021 317.438 721.746 317.438C719.416 317.438 717.277 317.98 715.326 319.063C713.376 320.146 711.751 321.663 710.451 323.613C709.151 325.509 708.311 327.703 707.932 330.195Z" fill="white"/>
<path d="M674.385 354.166C670.593 354.166 667.126 353.245 663.984 351.403C660.896 349.507 658.431 346.988 656.59 343.846C654.802 340.65 653.908 337.075 653.908 333.12C653.908 329.166 654.802 325.618 656.59 322.476C658.431 319.334 660.896 316.842 663.984 315C667.126 313.104 670.62 312.156 674.466 312.156C676.849 312.156 679.152 312.563 681.373 313.375C683.594 314.134 685.625 315.271 687.467 316.788V296.636L693.48 295.255V353.516H687.548V349.209C683.973 352.513 679.585 354.166 674.385 354.166ZM674.953 348.884C677.5 348.884 679.856 348.396 682.023 347.421C684.244 346.392 686.058 344.984 687.467 343.196V323.045C686.058 321.311 684.244 319.957 682.023 318.982C679.856 317.953 677.5 317.438 674.953 317.438C672.137 317.438 669.564 318.115 667.234 319.469C664.959 320.824 663.144 322.693 661.79 325.076C660.49 327.405 659.84 330.06 659.84 333.039C659.84 336.019 660.49 338.7 661.79 341.083C663.144 343.467 664.959 345.363 667.234 346.771C669.564 348.18 672.137 348.884 674.953 348.884Z" fill="white"/>
<path d="M626.624 354.328C622.778 354.328 619.257 353.407 616.061 351.566C612.919 349.67 610.427 347.124 608.585 343.928C606.743 340.731 605.822 337.156 605.822 333.202C605.822 329.247 606.743 325.672 608.585 322.476C610.427 319.28 612.919 316.761 616.061 314.919C619.257 313.023 622.778 312.075 626.624 312.075C630.524 312.075 634.045 313.023 637.187 314.919C640.329 316.761 642.821 319.28 644.663 322.476C646.504 325.672 647.425 329.247 647.425 333.202C647.425 337.156 646.504 340.731 644.663 343.928C642.821 347.124 640.329 349.67 637.187 351.566C634.045 353.407 630.524 354.328 626.624 354.328ZM626.624 348.965C629.386 348.965 631.878 348.261 634.099 346.853C636.374 345.444 638.162 343.548 639.462 341.165C640.816 338.781 641.494 336.127 641.494 333.202C641.494 330.222 640.816 327.568 639.462 325.239C638.162 322.855 636.374 320.959 634.099 319.551C631.878 318.142 629.386 317.438 626.624 317.438C623.861 317.438 621.342 318.142 619.067 319.551C616.846 320.959 615.058 322.855 613.704 325.239C612.404 327.568 611.754 330.222 611.754 333.202C611.754 336.127 612.404 338.781 613.704 341.165C615.058 343.548 616.846 345.444 619.067 346.853C621.342 348.261 623.861 348.965 626.624 348.965Z" fill="white"/>
<path d="M559.762 370.092V312.806H565.693V317.194C569.214 313.836 573.602 312.156 578.857 312.156C582.703 312.156 586.17 313.104 589.258 315C592.345 316.842 594.783 319.334 596.571 322.476C598.412 325.618 599.333 329.166 599.333 333.12C599.333 337.075 598.412 340.65 596.571 343.846C594.783 346.988 592.345 349.507 589.258 351.403C586.17 353.245 582.676 354.166 578.776 354.166C576.392 354.166 574.09 353.759 571.869 352.947C569.648 352.134 567.616 350.969 565.775 349.453V370.092H559.762ZM578.288 348.884C581.159 348.884 583.732 348.207 586.007 346.853C588.283 345.444 590.07 343.575 591.37 341.246C592.725 338.862 593.402 336.181 593.402 333.202C593.402 330.222 592.725 327.541 591.37 325.157C590.07 322.774 588.283 320.905 586.007 319.551C583.732 318.142 581.159 317.438 578.288 317.438C575.742 317.438 573.359 317.953 571.138 318.982C568.971 319.957 567.183 321.338 565.775 323.126V343.277C567.183 345.011 568.998 346.392 571.219 347.421C573.44 348.396 575.796 348.884 578.288 348.884Z" fill="white"/>
<path d="M489.933 353.516V312.806H495.946V317.276C499.033 313.754 503.015 311.994 507.89 311.994C510.761 311.994 513.307 312.671 515.528 314.025C517.749 315.325 519.483 317.113 520.729 319.388C522.408 316.896 524.412 315.055 526.742 313.863C529.071 312.617 531.725 311.994 534.705 311.994C537.684 311.994 540.284 312.671 542.505 314.025C544.726 315.325 546.46 317.167 547.706 319.551C549.006 321.88 549.656 324.616 549.656 327.758V353.516H543.724V328.976C543.724 325.347 542.776 322.503 540.88 320.445C538.984 318.332 536.411 317.276 533.161 317.276C530.94 317.276 528.908 317.844 527.067 318.982C525.225 320.065 523.654 321.718 522.354 323.939C522.462 324.534 522.543 325.157 522.597 325.807C522.706 326.403 522.76 327.053 522.76 327.758V353.516H516.828V328.976C516.828 325.347 515.88 322.503 513.984 320.445C512.088 318.332 509.542 317.276 506.346 317.276C504.179 317.276 502.202 317.79 500.415 318.819C498.681 319.794 497.191 321.257 495.946 323.207V353.516H489.933Z" fill="white"/>
<path d="M441 353.516V296.636H481.709V302.162H447.257V322.07H469.765V327.514H447.257V347.99H482.034V353.516H441Z" fill="white"/>
</g>
<g clip-path="url(#clip1_20937_621)">
<path d="M197.305 213.852L191.646 204.569L175.481 178.092C173.96 175.611 172.462 173.164 170.988 170.763C162.436 156.85 154.857 144.538 150.318 137.175C141.309 118.952 129.545 99.9856 115.049 86.4383C110.888 82.0597 106.029 78.2756 100.507 75.2803C69.1825 58.2575 28.449 72.6852 9.53988 107.485C-9.36924 142.297 0.691236 184.311 32.0159 201.334C37.2977 204.203 42.8538 206.169 48.5128 207.313C51.8968 208.284 63.9922 211.348 83.1414 211.44V211.554C83.1414 211.554 111.334 212.16 144.625 212.846C144.648 212.846 144.67 212.846 144.682 212.857C146.602 212.892 148.535 212.937 150.478 212.972C156.549 213.097 162.734 213.223 168.93 213.349C169.444 213.36 169.97 213.372 170.485 213.383C170.999 213.395 171.502 213.406 172.028 213.418H172.097C173.709 213.452 175.332 213.486 176.944 213.52C181.528 213.612 186.056 213.703 190.514 213.783C192.812 213.829 195.076 213.875 197.328 213.921C197.328 213.898 197.305 213.875 197.282 213.852H197.305ZM93.4306 187.729L86.3654 187.912C71.1146 187.912 61.4199 185.328 58.9048 184.562C55.0864 183.728 51.3252 182.356 47.724 180.401C26.3912 168.808 18.8916 141.382 30.987 119.135C43.071 96.8989 70.1543 88.256 91.4871 99.8484C95.2483 101.895 98.5751 104.433 101.445 107.337C118.022 122.382 129.82 147.007 136.165 162.795C139.743 171.689 141.584 177.771 141.584 177.771C122.812 184.436 106.509 187.066 93.4306 187.729ZM170.233 194.245C170.233 194.245 170.187 194.211 170.176 194.188C170.199 194.188 170.222 194.177 170.256 194.165C170.256 194.188 170.233 194.211 170.233 194.245Z" fill="white"/>
<path d="M331.944 110.915C313.035 76.1146 272.301 61.687 240.977 78.7097C235.455 81.705 230.596 85.4891 226.435 89.8677C215.254 100.317 205.685 114.001 197.762 128.075C197.762 128.109 197.728 128.132 197.705 128.166C196.653 129.835 188.868 142.239 178.465 158.839L178.442 158.862L170.999 170.74V170.763L166.918 177.257L162.756 183.91C162.322 184.608 161.888 185.305 161.442 186.002H161.453C161.042 186.666 160.619 187.329 160.196 188.003C159.784 188.666 159.373 189.341 158.938 190.015C158.115 191.353 157.269 192.69 156.423 194.039C155.966 194.782 155.508 195.514 155.04 196.257C154.194 197.618 153.336 198.99 152.49 200.35C149.861 204.569 147.243 208.764 144.693 212.857C146.614 212.891 148.546 212.937 150.49 212.971C156.56 213.097 162.745 213.223 168.941 213.349C169.456 213.36 169.982 213.372 170.496 213.383C171.011 213.394 171.514 213.406 172.04 213.417H172.108C173.72 213.452 175.344 213.486 176.955 213.52C181.54 213.612 186.067 213.703 190.526 213.783C190.274 213.52 190.023 213.246 189.771 212.983C190.034 213.257 190.286 213.52 190.537 213.783C192.835 213.829 195.099 213.875 197.351 213.92C223.714 214.446 245.527 214.846 250.271 214.846C250.66 214.846 250.98 214.823 251.254 214.778C274.508 215.521 289.187 211.828 292.96 210.742C298.619 209.599 304.175 207.632 309.457 204.763C340.781 187.74 350.842 145.726 331.933 110.915H331.944ZM244.841 205.678C244.841 205.678 244.875 205.563 244.887 205.495C244.887 205.563 244.852 205.62 244.829 205.678H244.841ZM293.76 183.83C290.17 185.785 286.409 187.157 282.579 187.992C277.732 189.466 246.396 197.709 199.9 181.201C199.9 181.201 214.134 134.271 240.039 110.766C242.909 107.862 246.236 105.324 249.997 103.278C271.33 91.6855 298.424 100.328 310.508 122.564C322.592 144.812 315.093 172.238 293.76 183.83Z" fill="white"/>
<path d="M238.986 296.336C238.129 292.163 234.013 275.164 219.997 252.162C218.294 248.64 208.908 232.955 197.361 213.932C197.361 213.932 197.338 213.875 197.315 213.852L191.656 204.569L175.491 178.091C173.97 175.611 172.473 173.164 170.998 170.763L166.928 177.257L162.767 183.91C162.332 184.608 161.898 185.305 161.452 186.003H161.463C161.052 186.666 160.629 187.329 160.206 188.003C159.794 188.666 159.383 189.341 158.948 190.015C158.125 191.353 157.279 192.69 156.433 194.039C155.976 194.783 155.519 195.514 155.05 196.257C154.204 197.618 153.346 198.99 152.5 200.35C149.871 204.569 147.253 208.764 144.704 212.857C140.908 218.939 137.261 224.815 133.888 230.246C124.16 245.931 116.82 257.924 115.311 260.759C109.229 271.379 104.119 282.537 101.066 293.661C99.1227 299.377 98.0366 305.436 97.9566 311.724C97.4536 347.37 129.167 376.717 168.769 377.266C208.382 377.826 240.895 349.371 241.398 313.725C241.478 307.711 240.644 301.881 239.009 296.336H238.986ZM215.298 258.209C215.298 258.209 215.39 258.129 215.424 258.095C215.39 258.129 215.355 258.164 215.321 258.209C215.31 258.209 215.31 258.221 215.298 258.221V258.209ZM126.195 254.768L126.069 254.654C126.114 254.688 126.16 254.734 126.206 254.768H126.195ZM169.089 352.858C143.777 352.503 123.531 332.543 123.874 308.272C123.931 303.996 124.628 299.869 125.874 295.97C129.053 283.669 135.683 271.299 142.84 260.53C142.84 260.53 142.874 260.473 142.943 260.37C142.966 260.336 142.989 260.301 143.012 260.256C143.069 260.176 143.126 260.073 143.206 259.958C147.859 253.042 152.672 246.823 156.913 241.712C164.081 233.081 169.557 227.685 169.557 227.685C205.787 261.159 213.069 292.735 214.018 297.708C215.058 301.481 215.596 305.459 215.538 309.552C215.195 333.823 194.4 353.212 169.089 352.858Z" fill="white"/>
</g>
<defs>
<clipPath id="clip0_20937_621">
<rect width="1110.95" height="312.235" fill="white" transform="translate(441 67)"/>
</clipPath>
<clipPath id="clip1_20937_621">
<rect width="341.569" height="341.569" fill="white" transform="translate(0 53)"/>
</clipPath>
</defs>
</svg>
