<svg width="768" height="768" viewBox="0 0 768 768" fill="none" xmlns="http://www.w3.org/2000/svg">
<rect width="768" height="768" rx="70" fill="#171717"/>
<g clip-path="url(#clip0_18228_20714)">
<path d="M428.542 395.157L419.272 379.95L392.79 336.576C390.3 332.512 387.846 328.504 385.43 324.572C371.422 301.78 359.005 281.61 351.57 269.549C336.812 239.696 317.541 208.627 293.794 186.434C286.977 179.261 279.018 173.062 269.972 168.155C218.658 140.269 151.93 163.904 120.954 220.912C89.9774 277.939 106.458 346.764 157.773 374.65C166.425 379.351 175.527 382.572 184.797 384.445C190.341 386.037 210.155 391.056 241.524 391.206V391.393C241.524 391.393 287.708 392.386 342.244 393.509C342.281 393.509 342.318 393.509 342.337 393.528C345.484 393.584 348.649 393.659 351.832 393.715C361.777 393.921 371.909 394.127 382.059 394.333C382.902 394.352 383.764 394.371 384.606 394.39C385.449 394.408 386.273 394.427 387.135 394.446H387.247C389.888 394.502 392.547 394.558 395.188 394.614C402.698 394.764 410.114 394.914 417.418 395.045C421.182 395.12 424.89 395.195 428.58 395.27C428.58 395.232 428.542 395.195 428.505 395.157H428.542ZM258.38 352.364L246.806 352.664C221.823 352.664 205.941 348.431 201.821 347.176C195.566 345.809 189.404 343.562 183.505 340.359C148.559 321.369 136.273 276.441 156.087 239.996C175.883 203.57 220.249 189.412 255.196 208.402C261.357 211.754 266.807 215.912 271.508 220.669C298.664 245.315 317.991 285.655 328.385 311.518C334.247 326.089 337.262 336.052 337.262 336.052C306.511 346.97 279.804 351.278 258.38 352.364V352.364ZM384.194 363.039C384.194 363.039 384.119 362.983 384.101 362.945C384.138 362.945 384.176 362.927 384.232 362.908C384.232 362.945 384.194 362.983 384.194 363.039V363.039Z" fill="url(#paint0_angular_18228_20714)"/>
<path d="M649.102 226.53C618.126 169.522 551.398 145.888 500.084 173.774C491.038 178.68 483.079 184.879 476.262 192.052C457.946 209.169 442.27 231.587 429.292 254.641C429.292 254.697 429.236 254.735 429.198 254.791C427.475 257.525 414.721 277.845 397.679 305.038L397.641 305.076L385.45 324.534V324.571L378.764 335.209L371.947 346.109C371.235 347.251 370.523 348.393 369.793 349.536H369.812C369.137 350.622 368.445 351.708 367.752 352.813C367.077 353.899 366.403 355.004 365.692 356.109C364.343 358.3 362.957 360.492 361.571 362.702C360.822 363.919 360.073 365.117 359.305 366.335C357.919 368.563 356.515 370.811 355.129 373.039C350.822 379.95 346.533 386.823 342.356 393.528C345.503 393.584 348.668 393.659 351.852 393.715C361.796 393.921 371.928 394.127 382.079 394.333C382.921 394.352 383.783 394.371 384.626 394.389C385.468 394.408 386.292 394.427 387.154 394.445H387.266C389.907 394.502 392.566 394.558 395.207 394.614C402.717 394.764 410.133 394.914 417.437 395.045C417.025 394.614 416.613 394.165 416.201 393.734C416.632 394.183 417.044 394.614 417.456 395.045C421.22 395.12 424.928 395.195 428.618 395.27C471.804 396.131 507.537 396.787 515.31 396.787C515.946 396.787 516.471 396.749 516.92 396.674C555.013 397.891 579.06 391.842 585.24 390.063C594.51 388.19 603.612 384.969 612.264 380.268C663.579 352.382 680.06 283.557 649.084 226.53H649.102ZM506.414 381.767C506.414 381.767 506.47 381.579 506.489 381.467C506.489 381.579 506.432 381.673 506.395 381.767H506.414ZM586.551 345.977C580.67 349.18 574.509 351.427 568.235 352.794C560.294 355.21 508.961 368.713 432.794 341.67C432.794 341.67 456.11 264.792 498.548 226.287C503.249 221.53 508.699 217.372 514.86 214.02C549.806 195.03 594.192 209.188 613.987 245.614C633.783 282.059 621.497 326.987 586.551 345.977Z" fill="url(#paint1_angular_18228_20714)"/>
<path d="M496.824 530.28C495.42 523.444 488.678 495.596 465.717 457.915C462.927 452.147 447.551 426.452 428.636 395.288C428.636 395.288 428.598 395.195 428.561 395.157L419.29 379.95L392.809 336.576C390.318 332.512 387.865 328.504 385.449 324.572L378.782 335.209L371.965 346.109C371.253 347.251 370.541 348.394 369.811 349.536H369.83C369.156 350.622 368.463 351.708 367.77 352.813C367.096 353.9 366.421 355.005 365.71 356.109C364.361 358.301 362.975 360.492 361.589 362.702C360.84 363.919 360.091 365.118 359.323 366.335C357.938 368.564 356.533 370.811 355.147 373.04C350.84 379.95 346.551 386.823 342.375 393.528C336.157 403.491 330.183 413.118 324.658 422.013C308.72 447.708 296.697 467.354 294.225 471.998C284.262 489.397 275.89 507.675 270.89 525.898C267.706 535.262 265.927 545.187 265.796 555.488C264.972 613.882 316.923 661.956 381.797 662.855C446.69 663.773 499.952 617.159 500.776 558.765C500.907 548.914 499.54 539.363 496.862 530.28H496.824ZM458.02 467.822C458.02 467.822 458.17 467.691 458.226 467.635C458.17 467.691 458.114 467.747 458.057 467.822C458.039 467.822 458.039 467.841 458.02 467.841V467.822ZM312.054 462.185L311.848 461.998C311.923 462.054 311.998 462.129 312.073 462.185H312.054ZM382.321 622.871C340.858 622.291 307.69 589.591 308.252 549.832C308.346 542.828 309.488 536.067 311.53 529.681C316.736 509.529 327.598 489.266 339.322 471.624C339.322 471.624 339.378 471.53 339.49 471.362C339.528 471.305 339.565 471.249 339.603 471.174C339.696 471.043 339.79 470.875 339.921 470.687C347.543 459.357 355.428 449.169 362.376 440.798C374.119 426.658 383.089 417.818 383.089 417.818C442.438 472.654 454.368 524.381 455.922 532.527C457.627 538.707 458.507 545.225 458.413 551.929C457.851 591.689 423.785 623.452 382.321 622.871V622.871Z" fill="url(#paint2_angular_18228_20714)"/>
</g>
<defs>
<radialGradient id="paint0_angular_18228_20714" cx="0" cy="0" r="1" gradientUnits="userSpaceOnUse" gradientTransform="translate(250.524 294.562) rotate(27.1924) scale(216.989 186.833)">
<stop offset="0.461458" stop-color="#787882"/>
<stop offset="1" stop-color="white"/>
</radialGradient>
<radialGradient id="paint1_angular_18228_20714" cx="0" cy="0" r="1" gradientUnits="userSpaceOnUse" gradientTransform="translate(487.157 297.836) rotate(145.868) scale(202.447 172.851)">
<stop stop-color="white"/>
<stop offset="0.732292" stop-color="#787882"/>
</radialGradient>
<radialGradient id="paint2_angular_18228_20714" cx="0" cy="0" r="1" gradientUnits="userSpaceOnUse" gradientTransform="translate(371.345 520.214) rotate(-89.6411) scale(216.803 163.368)">
<stop offset="0.440625" stop-color="#787882"/>
<stop offset="1" stop-color="white"/>
</radialGradient>
<clipPath id="clip0_18228_20714">
<rect width="559.543" height="559.543" fill="white" transform="translate(105.326 131.657)"/>
</clipPath>
</defs>
</svg>
