<svg width="9" height="9" viewBox="0 0 9 9" fill="none" xmlns="http://www.w3.org/2000/svg">
<g clip-path="url(#clip0_1251_9952)">
<path d="M3.75 6H5.25C5.45625 6 5.625 5.83125 5.625 5.625V3.75H6.22125C6.555 3.75 6.72375 3.345 6.4875 3.10875L4.76625 1.3875C4.62 1.24125 4.38375 1.24125 4.2375 1.3875L2.51625 3.10875C2.28 3.345 2.445 3.75 2.77875 3.75H3.375V5.625C3.375 5.83125 3.54375 6 3.75 6ZM2.25 6.75H6.75C6.95625 6.75 7.125 6.91875 7.125 7.125C7.125 7.33125 6.95625 7.5 6.75 7.5H2.25C2.04375 7.5 1.875 7.33125 1.875 7.125C1.875 6.91875 2.04375 6.75 2.25 6.75Z" fill="white"/>
</g>
<defs>
<clipPath id="clip0_1251_9952">
<rect width="9" height="9" fill="white"/>
</clipPath>
</defs>
</svg>
