<svg width="306" height="267" viewBox="0 0 306 267" fill="none" xmlns="http://www.w3.org/2000/svg">
<path d="M178.35 150.04C177.026 149.275 175.919 148.331 175.03 147.206C174.15 146.064 173.517 144.828 173.132 143.496C172.763 142.175 172.651 140.82 172.796 139.432C172.967 138.038 173.426 136.695 174.17 135.405C174.925 134.098 175.858 133.03 176.971 132.201C178.11 131.365 179.352 130.781 180.698 130.449C182.044 130.118 183.418 130.051 184.82 130.249C186.248 130.44 187.625 130.918 188.949 131.682C189.933 132.251 190.805 132.935 191.565 133.736C192.325 134.537 192.953 135.409 193.45 136.352C193.963 137.305 194.299 138.291 194.458 139.31L190.536 140.339C190.352 139.169 189.953 138.135 189.34 137.238C188.743 136.35 187.961 135.627 186.993 135.069C186.196 134.608 185.361 134.33 184.488 134.233C183.626 134.12 182.788 134.18 181.975 134.412C181.172 134.627 180.42 135.008 179.72 135.554C179.03 136.083 178.444 136.764 177.964 137.596C177.494 138.41 177.197 139.258 177.074 140.137C176.961 141 177.015 141.846 177.238 142.676C177.47 143.489 177.851 144.241 178.38 144.931C178.926 145.631 179.615 146.221 180.447 146.701C181.381 147.24 182.367 147.55 183.408 147.63C184.448 147.71 185.493 147.566 186.542 147.199L187.579 150.989C186.627 151.344 185.618 151.543 184.553 151.584C183.488 151.626 182.419 151.518 181.346 151.26C180.299 150.995 179.3 150.589 178.35 150.04Z" fill="white"/>
<path d="M193.197 158.612C191.873 157.847 190.853 156.851 190.136 155.622C189.42 154.394 189.046 153.081 189.016 151.683C188.986 150.285 189.343 148.941 190.088 147.651C190.833 146.361 191.809 145.374 193.018 144.692C194.254 144.002 195.583 143.66 197.005 143.666C198.444 143.683 199.826 144.073 201.15 144.837C202.474 145.602 203.494 146.598 204.21 147.826C204.944 149.065 205.312 150.386 205.316 151.792C205.346 153.19 204.989 154.534 204.244 155.824C203.499 157.114 202.514 158.095 201.288 158.768C200.079 159.451 198.764 159.789 197.342 159.782C195.919 159.776 194.538 159.386 193.197 158.612ZM194.946 155.582C195.642 155.984 196.36 156.172 197.099 156.146C197.855 156.13 198.561 155.926 199.217 155.535C199.899 155.137 200.446 154.582 200.858 153.869C201.279 153.139 201.487 152.387 201.48 151.614C201.491 150.851 201.314 150.138 200.95 149.475C200.613 148.805 200.096 148.269 199.4 147.867C198.721 147.475 197.999 147.296 197.233 147.329C196.477 147.345 195.771 147.548 195.115 147.939C194.459 148.33 193.921 148.89 193.5 149.62C193.088 150.333 192.872 151.08 192.851 151.86C192.841 152.623 193.017 153.337 193.382 153.999C193.746 154.662 194.267 155.19 194.946 155.582Z" fill="white"/>
<path d="M202.057 163.387L209.716 150.122L213.204 152.136L212.572 153.231C214.093 152.91 215.591 153.175 217.068 154.028C218.104 154.626 218.879 155.379 219.396 156.288C219.939 157.19 220.2 158.167 220.181 159.22C220.172 160.255 219.863 161.299 219.256 162.352L214.507 170.576L211.019 168.562L215.473 160.847C215.973 159.982 216.119 159.16 215.911 158.384C215.713 157.591 215.189 156.949 214.341 156.459C213.746 156.116 213.152 155.931 212.556 155.904C211.97 155.86 211.402 155.962 210.852 156.21L205.545 165.401L202.057 163.387Z" fill="white"/>
<path d="M222.833 175.722C221.526 174.968 220.518 173.989 219.809 172.788C219.109 171.569 218.753 170.266 218.739 168.877C218.736 167.472 219.107 166.125 219.851 164.835C220.606 163.528 221.588 162.533 222.797 161.85C224.005 161.168 225.312 160.824 226.718 160.821C228.123 160.818 229.479 161.193 230.786 161.948C231.838 162.555 232.722 163.337 233.437 164.293C234.17 165.259 234.663 166.325 234.918 167.491L231.471 168.522C231.293 167.695 231.005 166.997 230.609 166.429C230.24 165.853 229.741 165.384 229.113 165.022C228.434 164.63 227.725 164.447 226.986 164.472C226.264 164.508 225.575 164.721 224.919 165.112C224.28 165.513 223.745 166.087 223.314 166.834C222.902 167.547 222.678 168.288 222.64 169.059C222.63 169.822 222.806 170.535 223.171 171.198C223.545 171.844 224.071 172.363 224.75 172.755C225.344 173.098 225.964 173.298 226.611 173.354C227.284 173.403 228 173.319 228.76 173.101L229.583 176.496C228.483 176.834 227.335 176.941 226.139 176.816C224.954 176.675 223.852 176.31 222.833 175.722Z" fill="white"/>
<path d="M229.682 179.337L237.341 166.072L240.829 168.086L233.17 181.351L229.682 179.337ZM239.984 165.493C239.44 165.179 239.086 164.714 238.921 164.099C238.756 163.483 238.831 162.903 239.144 162.36C239.468 161.8 239.932 161.446 240.538 161.298C241.154 161.133 241.734 161.207 242.277 161.521C242.837 161.844 243.191 162.309 243.339 162.915C243.514 163.514 243.44 164.093 243.116 164.653C242.803 165.197 242.338 165.551 241.722 165.716C241.123 165.89 240.544 165.816 239.984 165.493Z" fill="white"/>
<path d="M241.735 186.635C240.411 185.871 239.382 184.869 238.648 183.631C237.932 182.402 237.558 181.089 237.528 179.691C237.498 178.293 237.855 176.949 238.6 175.659C239.345 174.369 240.313 173.378 241.505 172.685C242.714 172.003 244.012 171.655 245.401 171.642C246.789 171.628 248.12 171.989 249.393 172.724C250.666 173.459 251.613 174.425 252.235 175.621C252.857 176.818 253.139 178.112 253.082 179.505C253.042 180.908 252.63 182.288 251.846 183.646L251.316 184.563L241.488 178.888C241.337 179.503 241.309 180.12 241.404 180.74C241.515 181.371 241.757 181.951 242.129 182.483C242.518 183.025 243.009 183.467 243.603 183.81C244.197 184.153 244.795 184.373 245.395 184.471C246.012 184.578 246.596 184.565 247.149 184.431L248.235 187.842C247.038 188.033 245.918 188.032 244.876 187.838C243.851 187.653 242.804 187.252 241.735 186.635ZM242.878 176.364L249.32 180.083C249.505 179.488 249.549 178.902 249.452 178.326C249.381 177.742 249.189 177.212 248.875 176.737C248.588 176.254 248.181 175.861 247.655 175.557C247.112 175.244 246.556 175.07 245.987 175.036C245.419 175.001 244.864 175.1 244.323 175.331C243.809 175.555 243.327 175.899 242.878 176.364Z" fill="white"/>
<path d="M249.798 190.951L257.457 177.686L260.945 179.7L260.313 180.795C261.834 180.473 263.333 180.739 264.81 181.591C265.845 182.189 266.621 182.943 267.137 183.852C267.68 184.754 267.942 185.731 267.923 186.783C267.913 187.819 267.605 188.863 266.997 189.915L262.249 198.139L258.761 196.125L263.215 188.411C263.715 187.545 263.861 186.724 263.652 185.948C263.454 185.154 262.931 184.512 262.082 184.022C261.488 183.679 260.893 183.494 260.298 183.467C259.712 183.424 259.144 183.526 258.593 183.774L253.287 192.965L249.798 190.951Z" fill="white"/>
<path d="M270.575 203.286C269.268 202.531 268.26 201.553 267.55 200.351C266.851 199.133 266.494 197.829 266.481 196.441C266.477 195.036 266.848 193.688 267.593 192.398C268.347 191.091 269.329 190.096 270.538 189.414C271.747 188.731 273.054 188.388 274.459 188.385C275.864 188.381 277.22 188.757 278.527 189.511C279.58 190.119 280.464 190.901 281.179 191.857C281.911 192.823 282.405 193.889 282.66 195.054L279.213 196.086C279.034 195.258 278.747 194.56 278.351 193.992C277.981 193.417 277.483 192.948 276.854 192.585C276.176 192.193 275.466 192.01 274.727 192.036C274.005 192.072 273.316 192.285 272.66 192.676C272.022 193.077 271.487 193.65 271.056 194.397C270.644 195.11 270.419 195.852 270.382 196.622C270.371 197.386 270.548 198.099 270.912 198.762C271.286 199.408 271.813 199.927 272.491 200.319C273.086 200.662 273.706 200.861 274.352 200.918C275.025 200.967 275.742 200.882 276.501 200.665L277.325 204.06C276.224 204.398 275.077 204.504 273.881 204.38C272.695 204.238 271.593 203.874 270.575 203.286Z" fill="white"/>
<path d="M277.424 206.901L285.082 193.635L288.571 195.649L280.912 208.914L277.424 206.901ZM287.725 193.056C287.182 192.743 286.828 192.278 286.663 191.662C286.498 191.046 286.572 190.467 286.886 189.924C287.209 189.364 287.674 189.01 288.28 188.861C288.896 188.696 289.475 188.771 290.018 189.084C290.578 189.408 290.933 189.872 291.081 190.478C291.255 191.077 291.181 191.657 290.858 192.217C290.544 192.76 290.079 193.114 289.464 193.279C288.865 193.454 288.285 193.38 287.725 193.056Z" fill="white"/>
<path d="M287.225 212.865C286.274 212.316 285.532 211.661 284.998 210.9C284.474 210.122 284.185 209.31 284.13 208.464C284.076 207.618 284.279 206.796 284.739 205.998C285.474 204.725 286.518 204.015 287.87 203.868C289.249 203.713 290.779 204.121 292.46 205.092C293.614 205.758 294.597 206.563 295.41 207.508L295.968 206.54C296.409 205.776 296.505 205.062 296.255 204.397C296.005 203.733 295.422 203.136 294.505 202.606C293.945 202.283 293.289 202.028 292.536 201.843C291.793 201.64 290.889 201.48 289.825 201.364L290.037 198.057C291.364 198.19 292.571 198.411 293.659 198.723C294.763 199.043 295.799 199.483 296.767 200.042C298.549 201.071 299.683 202.302 300.167 203.736C300.679 205.163 300.484 206.658 299.582 208.219L294.614 216.825L291.176 214.841L291.72 213.899C290.942 213.992 290.185 213.951 289.449 213.775C288.713 213.599 287.972 213.296 287.225 212.865ZM288.093 207.833C287.799 208.342 287.785 208.877 288.05 209.437C288.324 209.98 288.827 210.463 289.557 210.884C290.134 211.217 290.708 211.458 291.278 211.606C291.859 211.738 292.427 211.772 292.984 211.709L294.102 209.774C293.775 209.359 293.407 208.977 292.998 208.628C292.589 208.278 292.121 207.951 291.595 207.648C290.797 207.187 290.081 206.977 289.446 207.018C288.838 207.052 288.387 207.323 288.093 207.833Z" fill="white"/>
<g clip-path="url(#clip0_1546_44849)">
<path d="M156.269 125.498L151.812 118.255L139.081 97.5971C137.884 95.6615 136.704 93.7527 135.543 91.8796C128.808 81.0244 122.838 71.418 119.264 65.6738C112.169 51.4559 102.904 36.6583 91.4871 26.0885C88.2098 22.6723 84.3832 19.7199 80.0343 17.383C55.364 4.10167 23.2836 15.3582 8.39139 42.5095C-6.50084 69.6698 1.42247 102.449 26.0928 115.731C30.2525 117.969 34.6284 119.504 39.0852 120.396C41.7503 121.154 51.2763 123.544 66.3576 123.616V123.705C66.3576 123.705 88.5609 124.178 114.78 124.713C114.798 124.713 114.816 124.713 114.825 124.722C116.338 124.748 117.859 124.784 119.39 124.811C124.171 124.909 129.042 125.007 133.922 125.105C134.327 125.114 134.741 125.123 135.146 125.132C135.552 125.141 135.948 125.15 136.362 125.159H136.416C137.685 125.185 138.964 125.212 140.234 125.239C143.844 125.31 147.41 125.382 150.921 125.444C152.731 125.48 154.513 125.515 156.287 125.551C156.287 125.533 156.269 125.515 156.251 125.498H156.269ZM74.461 105.116L68.8967 105.259C56.8857 105.259 49.2505 103.243 47.2696 102.646C44.2624 101.994 41.3001 100.924 38.464 99.3988C21.6629 90.3544 15.7565 68.9562 25.2824 51.5986C34.7994 34.25 56.1293 27.5067 72.9304 36.5512C75.8926 38.1478 78.5127 40.128 80.7726 42.3936C93.8281 54.1318 103.12 73.3447 108.117 85.6627C110.935 92.6021 112.385 97.3473 112.385 97.3473C97.6007 102.547 84.7613 104.599 74.461 105.116ZM134.948 110.201C134.948 110.201 134.912 110.174 134.903 110.156C134.921 110.156 134.939 110.147 134.966 110.138C134.966 110.156 134.948 110.174 134.948 110.201Z" fill="white"/>
<path d="M262.307 45.1853C247.414 18.034 215.334 6.77745 190.664 20.0588C186.315 22.3957 182.488 25.3481 179.211 28.7643C170.405 36.9168 162.869 47.5936 156.629 58.5736C156.629 58.6004 156.602 58.6182 156.584 58.645C155.756 59.9473 149.625 69.625 141.431 82.5763L141.413 82.5942L135.552 91.8616V91.8795L132.337 96.9458L129.06 102.137C128.718 102.681 128.376 103.225 128.025 103.769H128.034C127.709 104.287 127.376 104.804 127.043 105.33C126.719 105.848 126.395 106.374 126.053 106.9C125.404 107.944 124.738 108.987 124.072 110.04C123.712 110.62 123.352 111.19 122.982 111.77C122.316 112.832 121.641 113.902 120.975 114.963C118.904 118.255 116.842 121.528 114.834 124.722C116.347 124.748 117.868 124.784 119.399 124.811C124.18 124.909 129.051 125.007 133.931 125.105C134.336 125.114 134.75 125.123 135.155 125.132C135.561 125.141 135.957 125.15 136.371 125.159H136.425C137.695 125.185 138.973 125.212 140.243 125.239C143.853 125.31 147.419 125.382 150.93 125.444C150.732 125.239 150.534 125.025 150.336 124.82C150.543 125.034 150.741 125.239 150.939 125.444C152.749 125.48 154.532 125.515 156.305 125.551C177.068 125.961 194.247 126.274 197.984 126.274C198.29 126.274 198.542 126.256 198.758 126.22C217.072 126.8 228.633 123.919 231.604 123.071C236.061 122.179 240.437 120.645 244.596 118.406C269.267 105.125 277.19 72.3455 262.298 45.1853H262.307ZM193.707 119.12C193.707 119.12 193.734 119.031 193.743 118.977C193.743 119.031 193.716 119.075 193.698 119.12H193.707ZM232.234 102.075C229.407 103.6 226.445 104.67 223.428 105.321C219.611 106.472 194.931 112.903 158.313 100.023C158.313 100.023 169.523 63.4081 189.925 45.0694C192.185 42.8038 194.805 40.8236 197.768 39.227C214.569 30.1825 235.908 36.9257 245.425 54.2744C254.942 71.632 249.035 93.0301 232.234 102.075Z" fill="white"/>
<path d="M189.099 189.853C188.423 186.597 185.182 173.334 174.143 155.387C172.802 152.64 165.41 140.402 156.316 125.56C156.316 125.56 156.298 125.516 156.28 125.498L151.823 118.255L139.092 97.5971C137.894 95.6616 136.715 93.7528 135.553 91.8796L132.348 96.946L129.07 102.137C128.728 102.681 128.386 103.225 128.035 103.769H128.044C127.72 104.287 127.387 104.804 127.054 105.33C126.729 105.848 126.405 106.374 126.063 106.9C125.415 107.944 124.749 108.987 124.082 110.04C123.722 110.62 123.362 111.191 122.993 111.77C122.327 112.832 121.651 113.902 120.985 114.964C118.914 118.255 116.852 121.528 114.844 124.722C111.855 129.467 108.983 134.052 106.327 138.288C98.6647 150.526 92.8843 159.883 91.6958 162.095C86.9058 170.381 82.8811 179.087 80.4771 187.766C78.9465 192.225 78.0911 196.953 78.0281 201.859C77.6319 229.67 102.608 252.567 133.797 252.995C164.995 253.432 190.602 231.231 190.998 203.419C191.061 198.728 190.404 194.179 189.117 189.853H189.099ZM170.443 160.106C170.443 160.106 170.515 160.043 170.542 160.017C170.515 160.043 170.488 160.07 170.461 160.106C170.452 160.106 170.452 160.115 170.443 160.115V160.106ZM100.267 157.421L100.168 157.332C100.204 157.359 100.24 157.394 100.276 157.421H100.267ZM134.049 233.951C114.115 233.675 98.1695 218.101 98.4396 199.165C98.4846 195.829 99.0339 192.609 100.015 189.567C102.518 179.97 107.74 170.319 113.377 161.916C113.377 161.916 113.404 161.872 113.458 161.792C113.476 161.765 113.494 161.738 113.512 161.702C113.557 161.64 113.602 161.56 113.665 161.47C117.33 156.074 121.12 151.222 124.46 147.235C130.106 140.5 134.419 136.29 134.419 136.29C162.952 162.407 168.687 187.043 169.434 190.923C170.254 193.867 170.677 196.971 170.632 200.164C170.362 219.1 153.984 234.228 134.049 233.951Z" fill="white"/>
</g>
<defs>
<clipPath id="clip0_1546_44849">
<rect width="269.009" height="266.494" fill="white" transform="translate(0.878906)"/>
</clipPath>
</defs>
</svg>
