<svg width="270" height="267" viewBox="0 0 270 267" fill="none" xmlns="http://www.w3.org/2000/svg">
<g clip-path="url(#clip0_1537_10828)">
<path d="M156.269 125.498L151.812 118.255L139.081 97.5971C137.884 95.6615 136.704 93.7527 135.543 91.8796C128.808 81.0244 122.838 71.418 119.264 65.6738C112.169 51.4559 102.904 36.6583 91.4871 26.0885C88.2098 22.6723 84.3832 19.7199 80.0343 17.383C55.364 4.10167 23.2836 15.3582 8.39139 42.5095C-6.50084 69.6698 1.42247 102.449 26.0928 115.731C30.2525 117.969 34.6284 119.504 39.0852 120.396C41.7503 121.154 51.2763 123.544 66.3576 123.616V123.705C66.3576 123.705 88.5609 124.178 114.78 124.713C114.798 124.713 114.816 124.713 114.825 124.722C116.338 124.748 117.859 124.784 119.39 124.811C124.171 124.909 129.042 125.007 133.922 125.105C134.327 125.114 134.741 125.123 135.146 125.132C135.552 125.141 135.948 125.15 136.362 125.159H136.416C137.685 125.185 138.964 125.212 140.234 125.239C143.844 125.31 147.41 125.382 150.921 125.444C152.731 125.48 154.513 125.515 156.287 125.551C156.287 125.533 156.269 125.515 156.251 125.498H156.269ZM74.461 105.116L68.8967 105.259C56.8857 105.259 49.2505 103.243 47.2696 102.646C44.2624 101.994 41.3001 100.924 38.464 99.3988C21.6629 90.3544 15.7565 68.9562 25.2824 51.5986C34.7994 34.25 56.1293 27.5067 72.9304 36.5512C75.8926 38.1478 78.5127 40.128 80.7726 42.3936C93.8281 54.1318 103.12 73.3447 108.117 85.6627C110.935 92.6021 112.385 97.3473 112.385 97.3473C97.6007 102.547 84.7613 104.599 74.461 105.116ZM134.948 110.201C134.948 110.201 134.912 110.174 134.903 110.156C134.921 110.156 134.939 110.147 134.966 110.138C134.966 110.156 134.948 110.174 134.948 110.201Z" fill="white"/>
<path d="M262.307 45.1853C247.414 18.034 215.334 6.77745 190.664 20.0588C186.315 22.3957 182.488 25.3481 179.211 28.7643C170.405 36.9168 162.869 47.5936 156.629 58.5736C156.629 58.6004 156.602 58.6182 156.584 58.645C155.756 59.9473 149.625 69.625 141.431 82.5763L141.413 82.5942L135.552 91.8616V91.8795L132.337 96.9458L129.06 102.137C128.718 102.681 128.376 103.225 128.025 103.769H128.034C127.709 104.287 127.376 104.804 127.043 105.33C126.719 105.848 126.395 106.374 126.053 106.9C125.404 107.944 124.738 108.987 124.072 110.04C123.712 110.62 123.352 111.19 122.982 111.77C122.316 112.832 121.641 113.902 120.975 114.963C118.904 118.255 116.842 121.528 114.834 124.722C116.347 124.748 117.868 124.784 119.399 124.811C124.18 124.909 129.051 125.007 133.931 125.105C134.336 125.114 134.75 125.123 135.155 125.132C135.561 125.141 135.957 125.15 136.371 125.159H136.425C137.695 125.185 138.973 125.212 140.243 125.239C143.853 125.31 147.419 125.382 150.93 125.444C150.732 125.239 150.534 125.025 150.336 124.82C150.543 125.034 150.741 125.239 150.939 125.444C152.749 125.48 154.532 125.515 156.305 125.551C177.068 125.961 194.247 126.274 197.984 126.274C198.29 126.274 198.542 126.256 198.758 126.22C217.072 126.8 228.633 123.919 231.604 123.071C236.061 122.179 240.437 120.645 244.596 118.406C269.267 105.125 277.19 72.3455 262.298 45.1853H262.307ZM193.707 119.12C193.707 119.12 193.734 119.031 193.743 118.977C193.743 119.031 193.716 119.075 193.698 119.12H193.707ZM232.234 102.075C229.407 103.6 226.445 104.67 223.428 105.321C219.611 106.472 194.931 112.903 158.313 100.023C158.313 100.023 169.523 63.4081 189.925 45.0694C192.185 42.8038 194.805 40.8236 197.768 39.227C214.569 30.1825 235.908 36.9257 245.425 54.2744C254.942 71.632 249.035 93.0301 232.234 102.075Z" fill="white"/>
<path d="M189.097 189.853C188.421 186.597 185.18 173.334 174.141 155.387C172.8 152.64 165.408 140.402 156.314 125.56C156.314 125.56 156.296 125.516 156.278 125.498L151.821 118.255L139.09 97.5971C137.892 95.6616 136.713 93.7528 135.551 91.8796L132.346 96.946L129.068 102.137C128.726 102.681 128.384 103.225 128.033 103.769H128.042C127.718 104.287 127.385 104.804 127.052 105.33C126.727 105.848 126.403 106.374 126.061 106.9C125.413 107.944 124.747 108.987 124.08 110.04C123.72 110.62 123.36 111.191 122.991 111.77C122.325 112.832 121.649 113.902 120.983 114.964C118.912 118.255 116.85 121.528 114.843 124.722C111.853 129.467 108.981 134.052 106.325 138.288C98.6628 150.526 92.8823 159.883 91.6938 162.095C86.9038 170.381 82.8792 179.087 80.4752 187.766C78.9445 192.225 78.0892 196.953 78.0261 201.859C77.63 229.67 102.606 252.567 133.795 252.995C164.993 253.432 190.6 231.231 190.996 203.419C191.059 198.728 190.402 194.179 189.115 189.853H189.097ZM170.441 160.106C170.441 160.106 170.513 160.043 170.54 160.017C170.513 160.043 170.486 160.07 170.459 160.106C170.45 160.106 170.45 160.115 170.441 160.115V160.106ZM100.265 157.421L100.166 157.332C100.202 157.359 100.238 157.394 100.274 157.421H100.265ZM134.048 233.951C114.113 233.675 98.1675 218.101 98.4377 199.165C98.4827 195.829 99.0319 192.609 100.013 189.567C102.516 179.97 107.739 170.319 113.375 161.916C113.375 161.916 113.402 161.872 113.456 161.792C113.474 161.765 113.492 161.738 113.51 161.702C113.555 161.64 113.6 161.56 113.663 161.47C117.328 156.074 121.118 151.222 124.459 147.235C130.104 140.5 134.417 136.29 134.417 136.29C162.95 162.407 168.685 187.043 169.432 190.923C170.252 193.867 170.675 196.971 170.63 200.164C170.36 219.1 153.982 234.228 134.048 233.951Z" fill="white"/>
</g>
<defs>
<clipPath id="clip0_1537_10828">
<rect width="269.009" height="266.494" fill="white" transform="translate(0.878906)"/>
</clipPath>
</defs>
</svg>
